<svg width="165" height="200" viewBox="0 0 165 200" fill="none" xmlns="http://www.w3.org/2000/svg">
<path d="M50.9993 92.8214C50.8245 91.6544 51.1188 90.1871 51.4948 89.0823C51.6112 88.7406 52.0233 88.9438 52.1233 88.7083C52.3186 88.2466 52.142 87.7942 52.373 87.3445C52.4517 87.195 53.1069 87.4382 53.1741 87.2808C53.5376 86.425 53.439 85.5803 53.6683 84.7013C54.5633 81.3172 55.2645 77.9913 56.3721 74.4522C56.7354 73.2664 57.2203 72.1137 57.8166 71.0309C58.7209 69.36 60.4758 67.9347 61.5387 66.4605C61.664 66.2846 61.1524 65.9659 61.1461 65.9025C61.0831 64.9069 61.7729 65.9033 62.1794 65.7316C62.5686 65.5687 62.9445 65.3899 63.3099 65.1992C64.6727 64.4184 66.0332 63.7175 67.2619 63.1391C67.9506 62.824 66.8912 61.9147 67.8233 62.3358C67.8849 62.3656 67.8632 63.0186 68.0755 63.032C68.5521 63.0571 69.3504 62.796 69.689 62.8049C70.3466 62.8202 70.4362 62.8081 71.0321 62.7785C71.8401 62.7496 72.749 63.0807 73.5622 63.0068C73.7393 62.9896 73.5613 62.3297 73.8515 62.2458C74.1436 62.1599 74.8844 62.3046 75.1021 62.4922C75.3244 62.678 75.1439 63.1615 75.1693 63.2822C75.3565 64.2943 76.3723 63.1088 76.4918 63.1011C78.5002 62.9301 79.8429 64.1419 81.4347 64.6975C82.6532 65.1229 84.0189 65.3978 85.1165 65.9142C86.4228 66.5324 87.3639 67.3649 88.6195 67.9285C88.752 67.989 88.939 67.2381 89.1026 67.3113C90.1277 67.7717 91.1097 68.3019 92.0209 68.942C92.7339 69.4309 93.3875 69.9926 93.9739 70.6431C94.1149 70.8019 93.5243 71.2008 93.6391 71.39C94.3917 72.5515 94.8863 74.672 97.3889 73.0794C97.9471 73.7498 98.5944 74.5903 98.6537 75.5385C98.6885 76.1463 97.8409 76.2697 98.4493 76.5061C98.5858 76.5613 98.9584 76.0225 99.1288 76.1394C99.8506 76.6394 100.243 77.4925 100.985 77.9867C101.138 78.0867 101.577 77.7267 101.689 77.7089C102.611 77.5881 101.85 78.9219 101.839 79.0916C101.804 80.4216 102.436 80.9477 102.895 81.8565C102.999 82.0666 103.545 81.4677 103.671 81.6606C104.317 82.67 104.772 83.8234 104.896 85.0037C104.921 85.2666 104.234 85.2995 104.215 85.4367C104.133 86.0307 105.314 85.6891 105.251 86.2589C105.239 86.3782 104.699 86.5204 104.649 86.5603C103.862 87.1802 105.22 86.9446 105.276 87.0096C106.002 87.8 104.865 88.8516 105.34 89.6648C105.399 89.7632 105.989 89.3071 106.113 89.5984C106.351 90.1581 106.555 90.7421 106.722 91.3321C107.157 92.8689 107.297 94.4758 107.169 96.0089C107.141 96.3429 106.581 96.2077 106.521 96.2397C105.578 96.7374 106.954 96.7135 107.022 96.812C107.523 97.5762 106.499 98.4964 108.178 98.8405C108.067 102.393 109.144 105.835 107.705 109.277C107.688 109.321 107.018 109.245 106.987 109.331C106.611 110.363 107.652 110.164 108.919 110.875C109.237 111.058 107.69 111.56 107.576 111.604C107.158 111.767 106.164 111.57 106.082 111.626C105.441 112.078 108.74 112.077 108.723 112.719C108.717 112.739 108.113 112.638 108.051 112.689C107.857 112.849 108.093 113.02 107.879 113.178C107.382 113.537 105.777 113.604 106.685 114.199C106.803 114.275 108.678 114.245 108.562 114.818C108.516 115.046 108.493 116.053 108.353 116.331C108.214 116.606 107.625 116.374 107.597 116.393C106.753 117.091 106.442 116.781 105.239 117.075C104.04 117.362 106.843 117.463 107.144 117.64C107.444 117.819 106.745 118.312 106.505 118.432C106.266 118.549 105.899 118.348 105.76 118.457C104.849 119.172 107.116 118.925 107.536 119.226C108.528 119.954 106.411 120.231 106.147 120.776C106.075 120.924 106.56 120.85 106.589 120.992C106.697 121.546 106.013 121.804 106.525 122.484C106.611 122.581 107.779 123.283 106.824 123.469C106.687 123.495 106.192 123.295 106.045 123.502C105.82 123.836 105.616 124.406 105.718 124.823C105.796 125.117 106.692 124.956 106.37 125.25C106.226 125.379 105.786 125.012 105.556 125.26C105.325 125.527 105.196 126.257 105.146 126.525C105.093 126.816 105.759 126.818 105.796 126.85C105.899 126.956 105.989 127.173 106.048 127.364C106.105 127.568 106.12 127.779 106.111 127.803C106.069 127.947 106.007 128.131 105.926 128.32C105.855 128.477 105.738 128.757 105.479 129.087C102.889 131.583 100.665 130.657 98.6144 131.435C98.4358 131.489 98.6565 132.147 98.6303 132.162C98.0241 132.537 98.2793 130.668 97.7695 130.122C98.0102 131.489 97.7073 131.276 97.2875 131.474C97.081 131.571 97.2524 132.092 97.2387 132.149C96.9934 132.994 96.6566 131.966 96.5879 131.756C96.3139 130.984 96.1611 131.935 95.9766 131.417C95.7971 130.903 96.0645 130.103 95.6483 130.142C95.5613 130.645 95.9687 131.918 95.6527 132.149C94.4495 133.035 92.1203 132.049 91.1577 131.921C90.1911 131.801 89.8713 131.88 89.314 131.681C88.3058 131.316 88.6435 132.292 87.98 132.7C87.3111 133.105 87.7587 130.759 87.6956 130.246C87.6372 129.733 87.5113 130.25 87.4187 129.964C87.3273 129.679 87.5819 129.348 87.3346 129.227C87.0891 129.108 86.3304 129.963 86.1992 130.486C85.923 131.596 86.1576 132.801 85.4939 132.333C85.456 132.305 85.6337 131.695 85.4866 131.62C84.321 131.047 83.0809 130.896 81.9393 130.338C81.7831 130.261 82.0081 129.59 81.9186 129.537C80.9874 128.981 81.2026 130.181 80.4938 131.4C80.8335 129.703 80.6661 128.619 79.9318 128.509C79.4907 128.442 79.4625 129.199 79.0963 129.683C78.9856 129.829 78.743 129.271 78.6343 129.613C78.2735 130.73 78.3875 132.061 77.678 131.43C77.6474 131.4 77.8537 130.79 77.741 130.734C77.0186 130.366 76.734 131.548 75.8748 131.55C75.2011 131.552 74.1703 130.608 73.4691 130.34C73.8682 128.442 73.1023 128.737 72.5413 129.983C72.5274 129.978 72.5135 129.974 72.4996 129.969C71.9808 129.81 71.4013 129.704 70.9831 129.355C70.836 129.232 71.1488 128.75 71.1488 128.685C71.1993 127.684 70.5093 128.799 70.3725 128.794C68.9932 128.701 68.7035 127.336 67.2139 127.385C67.1634 127.389 66.2522 128.389 66.6296 127.421C66.6606 127.359 67.3442 127.133 66.9596 126.746C66.5646 126.35 66.3647 125.162 65.4223 125.056C65.1956 125.034 64.0649 125.415 64.4733 124.575C64.5305 124.464 64.8581 124.252 64.9779 124.061C65.3627 123.455 64.2361 124.231 64.9693 123.299C65.7036 122.368 66.0903 121.467 65.0469 121.397C65.016 121.394 64.0479 121.901 63.9304 121.708C63.7463 121.405 63.645 120.865 63.4348 120.565C63.3333 120.421 62.8396 120.888 62.8123 120.87C61.8311 120.076 61.8822 119.025 61.4587 117.805C61.3829 117.583 60.2526 117.461 60.6552 116.708C61.0977 115.886 64.2055 114.696 62.9777 114.115C62.501 113.889 58.7749 115.315 59.9337 113.777L59.9605 113.834C60.0003 113.794 60.0448 113.751 60.094 113.707C59.0188 112.406 59.5697 110.665 58.3627 109.402C58.3086 109.344 57.1279 109.476 57.0926 109.309C57.0431 109.062 57.5221 108.764 57.5055 108.584C57.4475 107.818 56.8142 107.281 56.7038 106.554C56.661 106.276 57.2305 106.233 57.1843 105.911C57.1381 105.587 56.3656 105.543 56.6192 105.026C56.8145 104.638 58.2334 104.014 58.3302 103.57C56.8582 103.83 56.8303 103.529 56.3542 103.058C56.262 102.967 55.7658 103.16 55.6956 103.121C55.3984 102.96 55.7965 102.707 55.4803 102.556C55.4042 102.519 54.8981 102.588 54.8074 102.56C54.0136 102.322 55.0887 101.621 55.2794 101.514C55.9969 101.078 55.3216 100.982 55.5967 100.681C55.8735 100.389 56.2775 100.757 56.4345 100.435C56.7591 99.7693 56.6456 98.9686 56.6676 98.3214C56.6731 98.0634 55.9919 98.2399 55.9769 98.203C55.8031 97.653 56.5437 97.1328 55.1984 96.7792C55.2203 96.7777 55.2419 96.7761 55.2632 96.7746C55.2624 96.7572 55.2704 96.7058 55.2718 96.6884C58.6892 96.9127 54.9065 96.2886 55.8366 95.604C55.9151 95.5497 57.4966 96.0513 57.6766 96.2875C57.8597 96.5122 57.2872 96.6626 57.6161 96.9966C57.6316 97.0118 57.7035 97.0486 57.8096 97.0968L57.832 96.8713C58.2734 97.0376 59.274 97.3384 59.3484 97.3817C60.0749 97.8214 57.5958 97.8495 57.4587 97.8754C55.9843 98.1416 57.6653 98.6693 57.7848 98.7907C58.328 99.3858 58.0077 99.9111 58.4249 100.387C58.6959 100.696 60.3175 100.574 60.2916 100.817C60.2106 101.609 58.0137 102.262 60.0827 102.728C60.5253 102.824 62.242 102.349 60.9741 103.172C60.8931 103.221 59.7259 103.911 60.5732 104.006C60.6796 104.017 61.1856 103.907 61.2369 103.939C61.571 104.154 61.2102 104.429 61.4744 104.688C61.7385 104.946 62.1139 105.234 62.0353 105.623C61.9894 105.86 61.1318 106.379 60.9343 106.55C60.3612 107.027 61.5236 107.03 60.787 107.443C60.0488 107.864 58.7324 107.852 58.3707 108.507C59.6636 108.136 60.9972 107.776 62.2995 107.41C62.5671 108.449 62.4964 109.602 62.9295 110.627C62.9844 110.754 63.6166 110.376 63.6929 110.504C64.0036 111.03 63.73 111.695 64.1169 112.227L63.8359 111.625C63.8467 111.636 63.8578 111.647 63.8693 111.658C64.2625 112.037 65.2063 112.161 65.6335 112.528C64.4499 113.565 65.294 113.997 65.454 114.552C65.5111 114.747 65.1493 114.942 65.1045 115.132C64.9455 115.841 65.9916 114.936 66.2487 114.951C67.344 115.005 64.7309 116.635 65.1847 117.226C65.2093 117.261 66.8462 116.782 66.9646 116.777C67.7397 116.752 66.5185 117.14 66.5521 117.416C66.6139 117.92 66.4681 118.41 67.1642 118.574C67.3715 118.624 68.4093 118.323 67.9375 119.019C67.8762 119.11 67.4253 119.412 67.4181 119.457C67.3288 120.229 68.7051 119.218 69.3398 119.097C69.9728 118.972 69.3376 120.052 69.144 120.347C68.6334 121.103 68.7336 120.442 68.659 120.485C67.7633 121.008 68.1264 121.175 68.2372 121.435C66.9943 122.554 67.3422 122.798 68.3599 121.702C68.4714 121.584 68.2154 121.527 68.2372 121.435C69.6422 120.554 70.01 120.656 69.2058 122.029C68.8356 122.676 68.0956 123.129 68.7861 123.374C69.098 123.479 69.8011 122.561 70.1862 122.488C71.0407 122.3 70.8692 123.529 71.4058 123.676C71.5902 123.721 71.7853 123.098 71.9164 123.106C72.2503 123.115 72.2461 123.652 72.6083 123.558C72.6394 123.547 72.8728 122.928 72.9453 122.953C73.3263 123.071 73.5696 123.351 73.9022 123.552C74.1841 123.669 74.4834 123.775 74.814 123.846C75.3235 123.957 76.3209 123.776 76.8521 123.944C77.7572 124.23 78.7898 125.363 79.64 125.25C80.1968 125.179 80.1698 124.508 80.4569 124.094C81.0058 123.292 81.5772 124.937 81.6559 125.189C81.6582 125.198 81.1799 125.294 81.3826 125.661C81.4381 126.379 81.6507 125.192 81.6559 125.189C81.7047 125.354 82.609 125.612 82.8054 125.506C82.9123 125.448 82.9259 124.821 82.98 124.803C84.2641 124.383 85.4843 124.336 86.6953 124.716C86.7161 124.73 86.6333 125.425 86.6831 125.449C87.383 125.81 87.895 124.984 88.5059 124.507C89.1135 124.03 89.5567 124.217 89.8638 125.428C90.3045 125.292 90.9317 125.836 91.2892 126.162C91.656 126.488 91.7149 125.127 91.7464 125.101C92.722 124.243 93.2888 125.014 94.2859 125.097C94.7687 125.139 95.6763 124.883 96.1357 124.689C96.5115 124.533 96.7549 124.827 97.0774 124.581C97.1195 124.549 96.997 123.954 97.0078 123.929C97.2717 123.163 97.2967 124.653 97.4096 124.905C97.8083 125.819 98.1105 126.294 98.4895 125.764C98.5945 125.639 98.4577 123.491 98.5588 123.339C98.7152 123.139 98.8294 123.898 98.9783 123.668C98.9897 123.65 98.8681 123.195 98.9744 123.186C99.2306 123.161 99.4539 123.174 99.5555 123.208C99.6562 123.25 99.6229 123.287 99.2856 123.548C99.1895 123.63 98.8221 122.948 98.634 123.102C98.5085 123.209 98.3698 123.347 98.2282 123.519C97.7063 124.203 97.5618 124.587 97.4992 124.707C97.4299 124.859 97.4025 124.939 97.3947 124.967C97.38 125.025 97.4156 124.959 97.4599 124.883C97.5577 124.701 97.7128 124.424 97.9173 124.17C98.0378 124.017 98.5306 124.224 98.6906 124.216C99.6645 124.139 98.3803 123.55 98.3647 123.487C97.9559 121.965 99.3262 120.965 98.9035 119.319C98.8782 119.231 97.4839 118.426 98.7599 118.254C98.8449 118.243 100.152 118.058 99.2975 117.719C99.244 117.699 98.5693 117.83 98.6628 117.511C98.7553 117.205 98.3533 116.658 99.1083 116.265C99.346 116.144 100.648 115.893 99.6522 115.407C99.5835 115.367 97.3102 114.613 98.9137 114.463C99.1776 114.439 100.862 114.561 100.021 114.012C99.8576 113.909 99.474 114.065 99.2499 113.806C98.9042 113.412 99.3752 112.909 98.6372 112.419C98.5066 112.332 97.371 111.959 98.2462 111.7C98.3833 111.659 98.9449 111.755 99.0111 111.607C99.3283 110.909 98.959 110.163 99.3478 109.452C99.4843 109.198 100.396 109.326 100.638 109.057C100.881 108.786 101.11 108.243 100.689 107.969C100.267 107.698 98.8217 108.027 98.6973 107.618C98.1546 105.857 98.9157 104.08 98.8822 102.321C98.8771 102.063 98.38 102.323 98.3341 101.947C98.1704 100.547 97.363 98.337 98.2146 97.016C98.8968 95.9269 99.7922 96.9534 99.9986 96.1674C100.094 95.7806 98.3629 95.7836 98.2936 95.7209C97.6567 95.1424 98.0758 94.5127 97.8521 93.9624C97.826 93.8961 97.793 93.8306 97.7511 93.7661C97.6591 93.6251 97.0493 93.9731 96.9785 93.8519C96.7307 93.4402 96.879 92.8894 96.6919 92.4919C96.6064 92.3141 96.1206 92.5098 96.1039 92.3296C96.0574 91.899 96.1466 91.4799 96.4711 90.9292C96.5004 90.8783 97.1984 90.9019 97.1159 90.597C96.9809 90.1061 97.2095 89.3387 96.5313 88.9882C96.3276 88.8845 95.2218 89.3323 95.8473 88.6879C95.9777 88.5541 97.3362 88.0817 96.0308 88.1792C95.8103 88.1845 94.0146 88.2518 94.8527 87.5071C95.0737 87.3102 96.0346 86.5979 95.7799 86.4972C95.7419 86.4865 95.2122 86.8629 95.0851 86.746C94.6483 86.3325 94.4365 85.7857 93.9845 85.4004C93.8633 85.2997 93.3962 85.8185 93.2362 85.6625C92.7971 85.237 92.5607 84.5505 92.4097 83.9741C92.3553 83.7612 92.886 83.5602 92.9267 83.5141C93.575 82.7447 92.4192 83.3911 92.3132 83.3763C91.6529 83.2559 91.9083 82.587 91.4893 82.3454C91.376 82.2796 90.9574 82.7538 90.8991 82.7716C90.3266 82.9436 91.2967 82.3455 91.2844 82.143C91.2507 81.5721 90.8563 81.2302 90.4765 80.9746C90.3361 80.8813 89.9651 81.5321 89.8482 81.4461C89.1498 80.9522 88.5441 80.3697 88.0833 79.5648C87.9971 79.4123 88.3944 79.0069 88.439 78.8826C88.7399 78.0047 87.7676 78.8289 87.647 78.8911C87.0663 79.1537 87.2098 78.6645 86.8863 78.5863C86.8293 78.5732 86.7722 78.5593 86.715 78.5444C84.8187 77.9361 82.9076 76.6231 81.393 75.739C79.3605 74.5546 77.8398 73.4157 75.8302 73.0186C75.7053 72.9943 75.6402 73.7461 75.5329 73.7353C74.1645 73.5645 72.9648 73.0898 71.9923 73.3006C71.9174 73.3168 72.0191 74.022 71.9085 74.0722C71.6802 74.1804 71.4523 74.1575 71.2639 73.9552C71.1685 73.8585 71.2024 73.2432 71.0984 73.1597C70.8514 72.9648 70.6235 72.9667 70.5228 73.1189C70.486 73.1833 70.7805 73.8455 70.7338 73.87C70.607 73.9512 70.6534 73.9882 70.6239 73.9488C70.1203 74.2967 69.5686 74.5891 68.7732 74.7921C68.678 74.813 67.4409 74.0194 67.5575 74.3463C67.8855 74.5874 68.282 74.8555 68.6388 75.1042C68.2723 75.8611 67.9042 76.5031 67.6027 77.243C67.2001 78.4215 66.8074 79.7423 66.5537 81.1244C66.5322 81.243 67.3314 81.1568 67.2941 81.3855C67.0793 82.7176 67.1293 84.0609 66.2145 85.4039C66.125 85.5377 64.7725 85.3244 64.9362 85.7693C64.9659 85.8473 65.087 86.5022 65.3682 86.6923C65.4108 86.7183 66.0563 86.6609 66.0567 86.8651C66.0477 88.0573 65.8118 89.29 65.3544 90.4556C65.2795 90.644 64.613 90.3994 64.5537 90.5355C64.138 91.4973 64.6077 92.5813 63.9675 93.4749C63.5374 94.0763 62.3691 93.8303 61.2076 94.1387C61.0434 94.1864 61.0133 94.5686 60.3411 94.5896C58.6499 94.6352 56.8 94.4156 54.9971 94.4841C54.6079 94.5078 55.025 95.0939 54.0875 94.7456C54.0243 94.7209 53.716 94.2826 53.3997 94.171C53.1808 94.0915 52.495 94.2215 52.2156 94.0591C51.9365 93.9064 52.5126 93.7434 52.1872 93.4899C51.8582 93.239 51.0774 93.3133 50.9993 92.8214ZM92.9517 127.599C93.307 128.247 93.3072 125.854 92.957 126.432C92.94 126.463 92.9335 127.568 92.9517 127.599ZM60.7983 110.189C59.9482 110.962 61.5198 110.748 62.1814 110.174C62.8462 109.609 61.0566 109.956 60.7983 110.189ZM58.7042 105.895C58.0306 106.623 61.3315 105.834 60.5336 105.482C60.4884 105.462 58.7435 105.854 58.7042 105.895ZM60.9205 92.5601C60.8884 92.5649 60.8477 92.8482 60.8791 92.8548C61.6335 93.0296 61.7141 92.4691 60.9205 92.5601ZM57.0287 101.448C56.5906 101.669 57.1775 102.083 57.7175 101.805C58.152 101.59 57.5735 101.182 57.0287 101.448ZM104.984 120.665C105.02 120.663 105.075 120.456 104.874 120.438C104.227 120.385 104.377 120.694 104.984 120.665ZM58.0847 94.1891C57.3683 94.887 54.434 94.4346 55.5907 93.1654C55.7916 92.9706 55.9984 94.1631 56.4042 94.0089C57.0997 93.7926 55.9688 92.3999 57.0723 92.5358C57.2691 92.5665 58.1258 94.1542 58.0865 94.1931C58.0859 94.1918 58.0853 94.1904 58.0847 94.1891ZM93.2 130.47C93.2082 130.501 93.4944 130.525 93.5022 130.494C93.6385 129.731 93.0655 129.682 93.2 130.47ZM107.045 108.494C107.113 108.478 107.166 107.796 107.103 107.775C105.856 107.447 105.745 108.806 107.045 108.494ZM73.4678 130.287C72.9935 130.97 72.5859 130.976 72.5425 129.984C72.8411 130.101 73.1562 130.176 73.4678 130.287Z" fill="white"/>
<path d="M79.8582 25.5056C80.9049 22.8237 82.3599 19.8089 83.9549 16.9357C84.9314 15.261 85.9679 12.8985 87.8094 10.3408C89.1907 8.54466 88.857 9.72376 89.9209 8.55782C90.1137 8.35827 90.3076 8.16182 90.5039 7.96769C92.1606 6.35802 93.8051 4.7242 96.0421 3.53427C96.8527 3.11838 96.2412 4.27135 97.0714 3.84081C101.612 1.44975 106.862 0.631773 111.126 0.995208C112.394 1.083 113.564 1.2087 114.542 1.28228C117.837 1.40153 120.718 3.27222 122.305 4.91668C123.978 6.60831 125 8.2352 125.923 9.7889C127.715 12.8922 128.998 15.7925 130.337 18.6166C133.452 26.2226 132.48 32.0289 132.476 37.8976C132.088 46.5191 125.054 50.3728 121.582 53.1748C120.392 54.0826 119.369 54.4609 118.368 54.7607C118.016 54.8611 117.665 54.9441 117.277 55.0129C117.08 55.0473 116.877 55.0785 116.622 55.1052C116.487 55.1188 116.356 55.1308 116.15 55.1393C116.049 55.1428 115.94 55.1464 115.752 55.1416C115.661 55.1387 115.56 55.135 115.395 55.1193C115.253 55.1032 115.009 55.0841 114.587 54.9699C114.042 54.7865 113.683 54.7549 112.614 54.0265C112.36 53.8344 112.17 53.6863 111.832 53.3172C111.508 52.958 111.193 52.4966 110.965 51.9573C110.475 50.8916 110.517 49.4504 110.785 48.6648C111.306 47.1428 111.831 46.7705 112.227 46.3256C112.554 46.0022 112.918 45.7169 113.154 45.5476C114.216 44.7963 115.019 44.4157 115.86 44.0035C117.484 43.2328 119.078 42.6006 120.644 41.9818C123.781 40.7504 126.859 39.589 129.584 38.3183C130.27 37.9983 129.626 37.6277 129.74 37.5276C131.502 35.9791 131.283 37.3639 132.669 36.9361C133.603 36.6436 134.53 36.3241 135.404 35.9763C141.165 33.7604 145.889 34.7575 149.991 34.7409C151.208 34.7817 152.437 35.0989 153.468 35.5721C155.178 36.4224 155.246 36.2496 155.404 36.0515C155.503 35.8711 155.731 35.7689 156.781 37.1733C156.913 37.3606 155.897 37.2552 156.479 37.9062C157.477 39.0215 158.782 40.7205 159.58 41.8659C159.913 42.3398 160.168 42.7723 160.334 43.0881C161.539 45.5967 161.614 46.002 162.298 48.2885C163.153 51.431 163.295 55.094 163.609 58.3352C163.677 59.03 164.274 58.0717 164.434 59.186C164.605 60.3032 164.563 63.2676 164.369 64.255C164.187 65.2474 163.695 64.8029 163.573 64.9741C162.57 66.3481 163.624 69.8104 163.58 70.2837C163.564 70.6179 163.54 70.9782 163.513 71.3099C161.893 80.6597 154.677 83.4604 149.23 86.2337C148.137 86.7298 147.244 86.9333 146.372 87.1248C140.587 88.1725 135.281 88.2029 130.337 88.3818C130.343 88.3813 130.381 88.3812 130.476 88.3692C130.507 88.3653 130.625 88.3492 130.766 88.3141C130.839 88.296 130.925 88.272 131.027 88.2363C131.079 88.2185 131.135 88.1977 131.195 88.1728C131.267 88.1436 131.395 88.0861 131.515 88.0199C131.981 87.7194 132.86 87.2971 133.244 85.5919C133.38 84.856 133.212 84.1338 133.075 83.7929C132.961 83.4924 132.835 83.2774 132.725 83.1129C132.615 82.9487 132.518 82.8339 132.437 82.7449C132.364 82.6664 132.33 82.634 132.286 82.5922C132.205 82.5153 132.146 82.4687 132.104 82.4363C131.946 82.3213 132.015 82.3794 132.085 82.417C132.154 82.4576 132.276 82.5224 132.382 82.5766C132.623 82.699 132.893 82.8274 133.164 82.9527C133.72 83.2092 134.304 83.4655 134.89 83.7199C136.055 84.2253 137.232 84.7247 138.404 85.2225C140.756 86.2278 143.078 87.1813 145.641 88.3431C146.155 88.5798 146.67 88.8131 147.19 89.0444C147.77 89.3033 147.411 88.3092 148.113 88.6212C152.906 90.9747 158.424 92.4725 163.049 98.1839C164.211 99.8374 164.264 100.903 164.443 101.855C164.576 102.808 164.6 103.623 164.602 104.421C164.597 106.006 164.475 107.459 164.326 108.893C164.235 109.728 163.624 108.621 163.493 109.449C163.18 111.435 162.679 113.812 162.375 116.17C161.988 120.485 159.481 124.01 159.204 126.672C158.503 127.337 157.754 127.957 157.094 128.495C154.054 131.027 150.364 131.648 147.78 131.526C145.566 131.355 147.608 130.501 145.03 130.921C144.447 130.996 145.221 131.624 144.329 131.681C141.006 131.863 137.544 131.176 134.323 130.432C133.805 130.307 133.306 130.163 132.8 129.992C131.947 129.69 131.929 130.29 131.639 130.264C128.995 129.993 127.252 126.103 127.074 125.554C126.842 125.142 126.633 124.743 126.467 124.42C126.387 124.261 126.312 124.118 126.292 124.057C126.285 124.03 126.288 124.025 126.373 124.098C126.423 124.14 126.482 124.196 126.643 124.309C126.727 124.367 126.824 124.43 126.972 124.506C127.137 124.589 127.353 124.678 127.626 124.74C127.381 124.632 127.211 124.613 127.376 124.575C127.478 124.544 127.688 124.515 128.048 124.273C128.398 124.041 128.689 123.607 128.774 123.317C128.917 122.765 128.798 122.853 128.843 122.999C128.869 123.166 128.94 123.415 129.048 123.705C129.473 124.831 130.253 126.179 131.077 127.606C131.544 128.409 131.639 127.074 132.117 127.835C134.62 131.813 137.469 135.984 139.648 140.578C140.119 141.608 139.05 140.992 139.249 141.511C139.943 143.46 141.036 143.592 141.669 145.756C141.747 146.06 141.8 146.399 141.814 146.792C141.831 147.311 141.241 147.096 141.193 147.196C140.429 148.707 141.794 149.835 141.828 150.235C142.147 154.982 140.16 157.61 138.531 161.608C138.502 161.672 138.473 161.737 138.443 161.802C138.179 162.346 139.479 161.454 138.645 162.993C134.664 169.06 128.733 171.356 121.955 172.161C116.731 172.149 113.261 168.816 110.865 165.983C109.915 164.81 111.033 165.257 111.015 165.141C110.782 163.359 109.166 163.472 108.822 163.114C106.221 160.314 105.47 156.766 102.822 155.451C102.056 154.022 101.3 152.571 100.556 151.341C100.28 150.891 100.016 150.474 99.815 150.212C99.7183 150.083 99.6358 149.998 99.6394 149.999C99.6396 149.992 99.7665 150.107 100.072 150.177C100.175 150.182 100.007 150.132 99.6061 150.328C99.2169 150.513 98.7229 150.86 98.2485 151.268C97.2729 152.105 96.3089 153.19 95.386 154.33C93.5295 156.64 91.83 159.159 90.1199 161.726C86.7284 166.841 83.375 172.113 79.5144 177.064C79.3966 177.217 79.0168 176.566 78.7845 176.873C75.9628 180.559 77.3203 180.373 76.6201 183.664C76.4361 184.506 73.7816 185.56 73.5692 185.645C72.7718 186.02 72.4525 184.779 72.2333 184.939C70.885 185.926 72.2188 187.179 72.0833 188.744C72.0243 189.238 71.8394 189.742 71.36 190.283C71.2934 190.35 71.1021 189.65 70.8892 189.8C70.2353 190.252 69.8817 190.978 69.1836 191.376C67.559 192.26 66.158 191.441 64.6383 193.705C64.4194 193.977 66.0064 195.281 63.528 196.664C62.602 197.302 57.9301 199.194 56.4888 199.227C55.0974 199.381 55.9285 198.601 55.8223 198.597C52.1348 198.354 53.4595 197.782 51.725 196.712C51.1245 196.302 50.8134 196.388 50.612 196.691C50.2848 197.216 50.1372 198.458 49.4296 198.488C48.8679 198.525 47.7706 197.854 47.2242 197.031C46.642 196.22 46.3985 195.382 46.3237 195.048C46.1912 194.381 46.9221 194.863 46.7552 194.323C45.8731 190.774 44.7849 193.507 43.8628 192.627C43.6956 192.465 43.5482 192.298 43.4212 192.137C41.7054 189.655 43.0507 187.014 43.028 184.685C43.0288 183.978 42.5976 184.589 42.5126 183.958C42.2274 181.43 42.9326 179.98 42.6561 177.118C42.6023 176.665 41.7046 174.151 42.9252 172.864C43.0986 172.687 43.4802 173.369 43.8161 172.369C44.3111 170.869 45.173 168.205 45.5872 166.557C45.8888 165.346 44.5881 166.399 45.3987 164.999C45.7666 164.387 45.751 165.781 46.4084 164.622C46.9647 163.629 48.0946 161.216 48.9981 159.943C49.1274 159.753 49.24 159.588 49.3319 159.453C50.0391 158.424 49.1186 158.604 49.1406 158.497C49.2853 157.846 50.4972 155.718 50.6432 155.548C51.7504 154.105 52.9383 152.742 54.1129 151.465C55.2543 150.237 56.5253 148.826 56.5205 148.353C56.5145 148.497 56.6367 148.677 56.631 148.63C56.6289 148.599 56.5043 148.475 56.3189 148.37C55.9425 148.15 55.3708 147.973 54.7802 147.873C49.6571 147.042 44.445 146.623 39.076 146.624C38.2677 146.624 38.7824 147.325 38.6588 147.332C35.8866 147.526 38.1242 145.783 36.2128 145.112C36.4466 146.507 35.315 146.22 33.3574 146.305C32.4125 146.347 32.9067 146.901 32.8188 146.953C31.3941 147.719 30.4546 146.626 30.2149 146.401C29.3208 145.572 28.2704 146.46 27.6678 145.9C27.0674 145.342 28.551 144.64 26.6804 144.551C26.1285 145.017 27.4487 146.39 26.0116 146.519C22.3049 146.827 16.3627 146.171 11.6223 144.444C9.24185 143.595 7.49264 142.112 6.44255 141.078C5.71211 140.366 5.16206 139.73 4.69364 139.191C2.80167 136.713 2.67306 135.287 2.33205 133.246C1.96161 128.532 1.29153 130.357 0.694618 127.418C0.227748 124.468 2.61752 125.927 3.12221 125.515C3.63592 125.128 3.12203 124.685 3.41871 124.201C3.71636 123.724 4.02108 124.787 4.17151 123.651C4.30524 122.526 3.67919 119.33 3.21283 118.849C2.20182 117.846 0.819623 119.161 1.66061 116.076C1.71188 115.899 2.24048 116.576 2.40556 115.895C2.54846 115.307 2.69802 114.696 2.84964 114.107C4.58206 108.141 10.6179 106.803 15.0342 105.658C15.7601 105.497 15.3296 106.353 15.7521 106.269C18.1647 105.803 18.7075 105.408 19.0209 104.811C19.2936 104.327 19.4037 103.688 20.4909 102.887C20.2613 104.738 21.767 105.261 24.9116 105.41C26.836 105.567 26.5939 104.815 27.9887 104.499C28.4133 104.406 29.7264 105.208 30.0523 104.918C30.8409 104.213 30.5112 103.202 31.5135 103.172C31.7729 103.138 32.264 103.225 32.7055 103.31C32.7877 103.323 32.6058 103.991 32.9053 103.984C33.0654 103.979 33.1406 103.934 33.078 103.978C33.0113 104.015 32.8853 104.233 32.8754 104.31C32.8527 104.457 32.7546 104.218 32.5627 104.067C31.6464 103.039 30.7082 102.457 29.3948 100.537C27.8381 98.2149 25.4785 93.7462 23.3987 91.2538C24.9236 90.0307 22.4752 87.9837 20.6418 88.0554C19.2024 86.5079 17.4867 85.01 16.0839 83.4763C15.5998 82.9468 16.3256 82.8502 16.3001 82.7444C15.9288 81.1141 14.3534 81.4225 13.9804 81.1347C12.5766 80.0051 11.3053 78.7882 10.4508 77.0309C9.10659 73.8449 9.23603 70.9528 8.49837 67.7653C8.46267 67.5966 7.09994 67.311 8.09291 65.9903C8.16272 65.9088 8.75735 67.5239 8.83227 65.2293C8.86094 64.5033 8.97219 63.5802 9.10661 62.5598C9.4107 59.5335 12.2709 57.8555 13.9112 56.4268C14.4773 55.9247 15.6966 54.2149 17.3068 54.1447C17.4111 54.1351 17.5164 54.1321 17.6224 54.1364C17.8777 54.1509 17.8096 54.6014 18.185 54.6747C19.3416 54.9413 19.4924 53.4592 20.9155 54.3208C22.3309 55.2043 24.3776 55.7499 27.4681 55.3421C27.5604 55.3313 28.4451 54.3498 29.4369 54.5634C31.0071 54.8894 33.1109 55.7408 34.6494 56.3428C35.3851 56.6289 35.1658 55.8219 35.2985 55.8612C35.8942 56.0548 36.4613 56.2698 37.0061 56.5076C36.9889 56.4827 36.7972 56.4535 36.7033 56.5067C36.6121 56.5516 36.6276 56.561 36.6461 56.5239C36.6918 56.4499 36.7592 56.2736 36.802 56.0947C36.8915 55.7287 36.9315 55.3092 36.9219 54.9262C36.8057 51.7398 36.817 48.6942 36.6642 44.7729C36.622 43.7297 35.4655 40.7947 36.0629 38.7167C36.7308 36.4532 40.0992 38.5193 39.1166 33.5601C38.7508 31.6067 34.4945 28.937 36.8866 25.3221C36.8731 23.6003 37.0269 21.9106 37.3562 20.291C37.5837 19.0935 38.4826 18.22 39.5296 17.4094C42.0248 15.7436 45.6704 16.1454 49.0537 16.051C49.5434 16.0452 50.0366 16.0899 50.5315 16.1916C50.7844 16.2197 52.2595 15.5819 52.9681 16.1232C53.9605 16.8844 54.0005 17.7555 54.5042 18.3843C56.3119 20.7719 57.7489 23.169 59.1445 25.6219C59.342 25.9701 59.5147 26.3311 59.6668 26.7002C60.1309 27.8778 59.4288 27.6666 59.9179 29.0641C60.1639 29.743 60.5456 30.3037 61.0701 30.7313C61.3476 30.9532 61.7051 31.1439 61.8899 30.9693C62.1136 30.7946 62.3003 30.3711 62.5225 29.9228C63.1641 28.5591 64.8106 27.1451 65.1685 25.1299C63.6882 24.9173 63.826 23.554 63.628 21.0798C63.5906 20.6042 63.0301 21.0644 62.9857 20.8369C62.7944 19.9052 63.2994 19.1096 63.1018 18.2137C63.0546 17.998 62.5484 17.9302 62.4824 17.7458C61.877 16.1766 63.4734 13.8311 63.8101 13.4901C63.9258 13.3465 64.0271 13.2146 64.1163 13.0916C64.9486 11.9612 64.8097 11.0971 65.6433 10.2493C66.576 9.39096 65.8718 11.0884 66.8079 10.0599C67.9034 8.91902 69.3028 7.76218 70.8843 7.02912C71.9459 6.5648 73.4456 6.67854 74.6167 6.9382C75.6817 7.20818 75.1373 6.37153 75.2927 6.39411C75.4694 6.42984 75.6441 6.47539 75.8154 6.53054C77.0975 8.42359 77.5193 10.6433 79.1758 11.3137C76.5781 14.2341 80.108 12.5393 80.6108 16.1488C80.6451 16.4343 79.1769 17.2724 78.6155 16.3682C78.0547 15.4701 78.0044 13.8089 77.0997 12.637C76.8895 12.338 74.6961 11.2656 74.5016 11.1105C72.9955 9.74586 74.9792 8.32747 75.0419 8.14441C75.1881 7.74475 75.1597 7.36886 75.0246 7.03693L75.5072 7.41628C74.4554 6.79464 72.8625 7.71261 72.559 7.83381C72.0446 7.96499 71.6193 8.1433 71.4808 8.27084C70.064 9.13142 68.7773 10.1612 68.1797 11.5638C67.6945 12.7963 69.171 13.5752 68.8497 14.2831C68.8195 14.357 68.7892 14.4293 68.7585 14.5014C67.7955 17.1742 65.6564 18.8699 67.2414 22.7146C67.5897 23.6006 69.442 22.8536 67.7872 25.8553C67.6745 26.0732 66.2312 28.1859 66.7057 29.9383C66.7662 30.1548 67.2743 30.2616 67.249 30.5733C67.1139 31.4032 67.1705 32.0003 66.0367 33.7045C65.8642 33.9357 65.6703 34.168 65.3969 34.4308C65.084 34.7308 64.6871 35.0421 64.1869 35.3065C63.1861 35.9012 61.4248 36.0572 60.4268 35.7272C59.2495 35.3736 58.8648 35.0278 58.3723 34.6518C58.0006 34.3413 57.753 34.0749 57.5131 33.7948C56.7675 32.891 56.4926 32.2631 56.1846 31.7201C55.2902 30.0058 54.7523 28.9644 54.3718 28.2551C54.2134 27.9563 54.0714 27.6584 53.9472 27.3629C53.505 26.3052 53.7482 24.6983 53.717 24.1628C53.6401 22.6077 51.984 22.1046 52.2162 21.073C52.3715 19.9618 54.4289 20.4078 53.3522 18.3787C52.3254 19.251 51.2337 20.1121 50.2467 21.0404C49.5581 20.3864 49.2619 20.2301 48.7863 20.1153C47.2277 19.9459 45.6977 19.8332 44.3473 19.8854C43.0432 19.881 41.732 20.3644 41.9917 20.2866C41.8932 20.372 41.8053 20.4489 41.727 20.5192C41.5398 20.6894 41.6805 20.8117 41.8008 20.9521C41.9286 21.087 42.0316 21.2444 41.926 21.3653C41.6368 21.733 41.9078 21.3936 41.8645 21.1747C41.4748 22.6277 41.1194 24.2436 41.1458 26.0877C41.1786 28.2855 41.9373 30.7403 42.1969 33.0893C40.6887 34.5749 41.3877 38.1392 41.4501 40.7604C41.4706 41.6853 41.0561 41.648 40.9745 42.3185C40.6819 44.836 41.9436 43.5587 42.2135 44.2203C43.3745 47.0572 40.3419 47.5785 40.7234 51.0726C40.7439 51.241 42.5653 53.4267 42.684 53.7643C42.8412 54.1713 42.9137 54.4383 42.9299 54.6024C42.9747 55.9483 42.202 54.2465 42.0071 56.1007C41.8873 56.8051 41.7489 57.4435 41.317 58.3795C41.0644 58.8557 40.8407 59.4369 39.8561 60.3019C39.3638 60.7162 38.5271 61.213 37.4843 61.3418C36.4437 61.4808 35.4894 61.2018 34.9102 60.9086C33.9658 60.3022 32.9081 59.7963 31.3479 59.6382C30.6398 59.5597 28.9097 60.1448 27.84 59.1741C27.6954 59.0452 27.8724 58.5246 27.7437 58.4718C25.3682 57.6144 25.172 59.3958 24.0448 59.9873C22.9489 60.5809 21.2534 59.8168 20.7775 59.65C19.6188 59.1449 21.3164 59.054 21.3561 58.9852C21.7136 57.8536 20.4122 58.3054 19.4483 58.6942C19.4323 58.7007 19.4163 58.7071 19.4004 58.7134C18.4951 57.2886 16.7961 58.2164 18.0736 59.2525C18.2094 59.3654 19.1062 58.7665 19.4004 58.7134C18.9552 60.7494 17.2582 61.7079 15.051 61.423C14.5253 61.3689 14.2737 61.079 13.9391 61.0215C13.6472 60.9483 13.0445 61.2214 12.8067 62.0476C12.7116 62.5857 13.4431 62.6663 13.8854 62.784C14.0307 62.9464 14.1503 63.1622 14.2149 63.4919C14.803 66.4834 13.7389 70.383 14.4557 72.9111C14.7149 73.7704 15.1322 72.7961 15.3311 73.3335C15.5115 73.7916 15.6373 74.173 15.725 74.4321C15.7781 74.747 16.3217 75.686 17.3002 76.422C17.4359 76.5247 17.611 75.7707 18.0242 76.1672C21.3866 79.2582 24.8297 82.7635 28.4467 86.9518C30.2438 88.9593 33.4864 92.6081 34.9431 95.0079C36.08 96.8229 37.1127 98.9463 38.038 101.06C38.3682 101.872 39.0197 102.78 38.7721 105.117C38.629 106.268 37.8626 107.643 36.9989 108.351C36.1398 109.089 35.377 109.363 34.7887 109.539C32.5039 110.074 31.5168 109.728 30.3003 109.523C29.1778 109.259 28.3406 109.055 27.5713 108.963C25.3722 108.732 25.7979 109.505 24.9333 109.866C23.4028 110.545 20.9007 109.438 20.3788 109.381C20.3548 109.357 21.887 108.856 20.9731 108.71C20.2999 108.141 20.387 109.376 20.3788 109.381C20.3712 109.378 20.3613 109.377 20.3493 109.376C19.7515 109.39 15.8381 110.379 15.1893 110.753C14.8035 110.955 15.2315 111.47 15.0306 111.564C13.3308 112.355 11.7809 113.193 10.8177 113.97C10.3364 114.352 10.0323 114.699 9.89732 114.914C9.76034 115.139 9.75223 115.196 9.70797 115.358C9.43343 116.798 9.17509 118.316 8.93185 119.824C8.90914 119.919 8.22945 119.699 8.18473 119.926C7.55925 123.081 8.34181 125.207 8.91279 127.655C9.50075 130.114 9.59603 131.745 8.74139 133.166C9.0399 133.988 9.3231 134.871 9.29725 135.098C9.823 135.907 10.1989 136.534 10.502 136.984C11.2554 138.057 12.1357 136.922 12.2101 136.955C12.827 137.106 13.3134 137.19 13.8178 137.293C16.1583 137.809 18.3948 138.644 21.9798 139.087C24.2063 139.374 28.8006 139.421 31.3484 139.361C33.3591 139.318 34.568 139.675 36.4468 139.533C36.7008 139.514 36.4649 138.9 36.5429 138.88C38.6595 138.224 37.6066 139.671 38.0298 139.949C39.5701 140.964 40.5187 141.504 43.2441 141.163C43.8678 141.085 45.8016 139.039 46.971 138.981C48.4932 138.91 47.8718 139.637 49.4699 139.557C49.6074 139.552 49.607 139.077 50.5947 139.171C52.2507 139.329 53.9713 139.542 55.7354 139.808C56.9491 139.991 58.226 140.238 59.8843 141.047C60.7131 141.477 61.688 142.034 62.7635 143.249C63.8272 144.384 64.8999 146.75 64.6762 148.927C64.4613 151.551 63.262 153.277 62.6041 154.211C61.8814 155.197 61.3276 155.811 60.8204 156.413C60.3963 156.907 61.5009 156.778 60.9122 157.481C58.9527 159.794 57.1806 162.021 55.3887 164.367C55.0392 164.778 54.5706 165.478 54.1333 166.191C53.7174 166.878 53.4505 166.21 53.2361 166.304C51.9078 166.94 52.6071 169.024 52.5553 169.273C51.2029 175.486 49.0907 181.035 50.7007 186.381C50.7665 186.595 51.7941 187.493 52.0461 188.086C52.3159 188.703 52.3922 189.21 52.2229 189.671C52.168 189.759 51.5963 191.536 52.6211 191.455C52.6516 191.451 52.7594 191.29 52.8927 191.194C53.0158 191.083 53.2227 191.127 53.2266 191.184C53.2118 191.205 53.1792 191.085 52.7984 190.794C52.4494 190.51 51.5395 190.108 50.7132 190.121C51.462 190.142 52.1739 190.209 52.8726 190.463C53.3276 190.65 54.7985 191.766 55.925 190.354C56.0935 190.255 57.077 187.423 58.4283 188.453C58.6505 188.614 59.3942 190.211 60.4884 188.47C60.6803 188.133 59.9629 188.179 60.5574 187.47C61.4412 186.396 63.1836 185.438 63.8334 183.561C63.8962 183.383 63.9231 182.805 64.1379 182.247C64.3335 181.753 64.6964 181.245 65.3535 181.051C65.5763 180.984 65.8036 181.616 66.2445 181.14C68.3668 178.834 69.9431 175.791 72.0845 173.171C72.8397 172.242 73.2808 173.246 74.1581 172.317C75.0324 171.393 76.5777 169.353 76.9202 168.006C77.2637 166.657 75.2656 167.13 76.2133 165.373C80.8077 157.651 84.0788 150.87 93.9279 142.752C94.892 142.141 95.0313 141.966 95.1948 141.729C95.4401 141.529 95.4825 141.048 98.2435 140.402C99.3594 140.192 100.794 140.128 102.284 140.467C105.713 141.379 106.793 143.077 107.551 143.876C108.281 144.773 108.664 145.387 109.016 145.909C113.038 152.653 117.034 158.855 119.075 161.412C119.989 162.673 119.644 162.822 119.231 162.962C118.818 163.065 118.318 163.077 119.256 163.873C119.711 164.238 120.369 164.094 120.772 163.784C121.189 163.478 121.367 163.05 121.416 163.03C121.5 162.992 121.566 162.956 121.629 162.925C121.488 162.913 121.58 162.894 121.659 162.869C121.751 162.844 121.875 162.815 122.001 162.785C122.263 162.724 122.557 162.656 122.849 162.589C123.439 162.453 124.041 162.314 124.625 162.157C125.792 161.841 126.942 161.442 127.929 160.737C128.361 160.42 127.566 160.105 127.913 159.849C129.068 158.984 130.07 158.325 130.31 157.722C130.324 157.688 130.327 157.656 130.323 157.626C130.373 157.242 130.005 157.106 130.226 156.658C130.829 155.37 131.389 154.071 132.072 152.622C132.134 152.48 132.657 153.537 132.829 152.34C133.023 150.86 133.299 149.064 132.888 147.401C132.901 147.555 132.715 147.134 132.423 146.778C132.018 146.266 130.996 146.835 130.944 145.028C130.913 144.632 132.42 144.336 130.306 143.201C129.966 143.01 126.68 140.905 126.592 138.784C126.574 138.228 126.899 136.562 126.165 135.746C126.062 135.638 125.834 136.479 125.301 135.752C123.422 132.979 121.703 130.831 119.776 125.824C119.523 124.988 119.406 125.194 119.256 125.366C119.182 125.445 119.101 125.497 118.993 125.346C118.939 125.27 118.878 125.143 118.812 124.931C118.747 124.712 118.675 124.446 118.611 123.886C118.562 123.432 118.533 122.98 118.56 122.359C118.594 121.688 118.7 120.913 118.978 120.05C119.499 118.085 121.617 115.666 123.651 114.901C127.651 113.514 128.644 114.324 130.007 114.478C132.929 115.339 133.226 116.16 133.775 116.564C134.195 116.979 134.394 117.233 134.562 117.441C134.869 117.83 135.005 118.036 135.13 118.214C135.363 118.553 135.487 118.742 135.605 118.913C135.83 119.243 135.982 119.446 136.121 119.619C136.394 119.955 136.588 120.155 136.876 120.36C137.198 120.568 136.774 120.993 136.77 121.057C136.802 121.252 136.865 121.379 136.945 121.453C137.703 121.906 138.451 121.154 138.772 121.164C141.218 121.237 143.003 122.036 145.079 121.832C145.638 121.769 145.215 121.158 145.323 121.098C146.37 120.489 145.64 121.665 146.345 121.729C148.211 121.908 149.883 121.192 150.203 120.729C150.334 120.608 150.458 120.491 150.575 120.382C151.264 119.727 150.009 119.876 150.588 119.329C152.523 117.395 152.578 117.054 152.882 115.549C153.089 113.361 153.347 111.241 153.606 109.26C153.731 108.301 154.259 108.934 154.396 108.739C155.366 107.368 154.164 105.446 154.027 105.114C153.768 104.347 153.686 103.91 153.68 103.698C153.68 103.6 153.692 103.557 153.754 103.668C153.837 103.786 153.873 104.049 154.473 104.858C154.426 104.795 154.371 104.733 154.307 104.672C152.9 103.089 146.704 100.369 141.307 97.8102C137.688 96.1239 133.425 94.5181 129.511 92.7759C128.904 92.5017 128.319 92.2371 127.531 91.8252C127.316 91.7116 127.13 91.6115 126.839 91.441C126.577 91.2802 126.264 91.1109 125.654 90.6341C125.475 90.4911 125.275 90.3213 125.039 90.0914C124.865 89.9159 124.387 89.4569 123.899 88.6605C123.776 88.4575 123.649 88.2274 123.525 87.9618C123.464 87.8291 123.403 87.6874 123.344 87.536C123.315 87.4602 123.286 87.3821 123.258 87.3014C123.219 87.1905 123.177 87.0597 123.14 86.9303C122.833 85.9054 122.72 84.3829 123.185 82.9294C124.304 79.891 125.826 79.3004 126.791 78.7323C126.915 78.6714 127.033 78.6178 127.146 78.5698C127.249 78.5261 127.292 78.5094 127.362 78.482C127.491 78.432 127.613 78.3891 127.728 78.3515C127.959 78.2765 128.162 78.2222 128.346 78.1792C128.701 78.0952 129.051 78.0473 129.184 78.0323C129.538 77.9906 129.818 77.978 130.072 77.973C133.257 77.9755 136.206 78.024 138.952 77.9755C140.32 77.9506 141.641 77.9007 142.819 77.7961C143.405 77.7442 143.956 77.6764 144.394 77.6006C144.822 77.5348 145.192 77.4079 145.037 77.4869C147.92 76.1943 150.724 74.4544 152.351 72.5129C152.628 72.1754 151.785 72.0227 151.992 71.7458C152.643 70.8653 152.854 70.2382 152.907 69.8327C153.571 64.7515 153.704 58.9415 152.747 53.9609C152.64 53.4251 152.078 54.3071 151.88 53.474C151.476 51.7744 150.923 49.806 150.642 48.8347C150.512 48.3666 151.355 48.6409 151.197 48.1622C151.155 48.0386 151.109 47.9227 151.07 47.8296C150.068 46.0043 148.743 44.7036 148.883 45.0166C148.938 45.0709 148.863 45.2465 148.759 45.4062C148.67 45.5685 148.534 45.7217 148.796 45.8203C148.973 45.8833 149.201 45.9298 149.39 45.9423C145.135 45.6497 141.087 45.8382 140.492 46.2553C135.34 48.6422 130.783 50.1001 126.066 51.6064C125.452 51.7994 124.326 50.6821 123.198 51.4938C123.27 51.9074 123.472 52.3414 123.61 52.7561C122.512 53.275 121.412 53.8154 120.615 54.2717C120.409 54.3895 120.251 54.4864 120.131 54.5653C120.032 54.6278 119.957 54.7005 120.145 54.5442C120.194 54.5019 120.261 54.4423 120.347 54.3556C120.453 54.2485 120.593 54.0983 120.766 53.8742C120.916 53.6756 121.195 53.2975 121.473 52.6761C121.612 52.358 121.738 52.0288 121.855 51.5335C121.981 50.9954 122.055 50.3496 122.013 49.6533C121.941 48.2263 121.31 46.8189 120.585 45.9377C120.41 45.7178 120.21 45.5026 120.06 45.3565C119.924 45.2235 119.79 45.1048 119.662 44.9985C119.404 44.7859 119.166 44.6227 118.953 44.4928C118.495 44.2192 118.285 44.1418 118.088 44.0602C117.894 43.9843 117.748 43.9398 117.64 43.9098C117.263 43.8067 117 43.7629 116.786 43.7318C116.606 43.7066 116.486 43.6954 116.37 43.6862C116.136 43.669 116.041 43.6688 115.923 43.6673C115.732 43.6666 115.626 43.6728 115.543 43.6777C115.388 43.6879 115.321 43.6971 115.269 43.7036C115.171 43.717 115.148 43.7231 115.128 43.7271C115.095 43.7348 115.104 43.7334 115.083 43.741C115.044 43.7651 114.91 43.7725 114.427 44.1433C116.657 42.4153 118.471 41.1102 119.565 39.9651C120.684 38.7703 120.822 38.3423 120.904 37.7028C121.089 32.5959 121.134 27.1486 120.073 24.3089C119.971 24.0442 119.42 24.7451 119.238 24.3083C119.216 24.2596 119.196 24.2153 119.176 24.1754C117.773 21.3637 116.403 18.6457 115.125 16.4949C114.5 15.4347 113.863 14.5337 113.527 14.1188C113.364 13.9084 113.307 13.8418 113.441 13.8486C113.565 13.8558 113.902 13.8838 114.102 13.803C113.747 13.7598 113.406 13.7112 113.079 13.66C112.388 13.5508 112.736 12.1897 110.869 12.3118C110.494 12.3107 108.021 12.5031 107.565 12.8955C107.502 12.9488 107.928 13.5381 107.292 13.6346C104.706 14.0548 102.685 15.0941 100.348 17.2706C99.7768 17.7711 99.2345 18.4238 98.5427 19.5415C98.1346 20.2065 97.9051 19.1515 97.6027 19.6408C97.0228 20.5928 96.4344 21.7919 95.7724 23.0497C94.2042 26.024 92.8792 29.1946 91.2569 31.8521C89.7899 34.2883 89.1085 32.8768 87.4794 33.8723C87.24 34.02 86.6432 35.6323 85.9916 35.5073C84.2978 35.2512 82.8228 33.792 80.9899 33.6011C80.7885 33.6001 80.5755 34.2364 80.3462 34.9487C80.289 35.1278 80.2267 35.3397 80.1695 35.5351C80.1074 35.7525 80.0531 35.9995 80.0012 36.0611C79.8884 36.2293 79.7905 35.3684 79.7177 34.7362C79.7059 34.3804 80.0663 32.2883 79.9382 31.7535C79.8482 31.3609 78.9921 31.7044 78.9729 30.9459C78.9544 30.1934 79.7558 29.7106 79.8672 28.5654C79.9801 27.4223 79.0679 27.5574 79.8582 25.5056ZM15.2943 140.624C16.6647 141.564 17.282 139.241 15.6297 139.502C15.5494 139.517 15.2252 140.577 15.2943 140.624ZM43.9828 17.9635C43.0029 17.522 42.251 17.8158 42.043 18.249C41.83 18.6862 42.0504 19.2277 42.5972 19.5072C43.6506 20.0839 44.5671 18.2427 43.9828 17.9635ZM57.9778 28.1084C57.9499 27.2096 57.4536 26.8234 56.9725 26.8202C56.5128 26.7565 56.0683 26.9806 55.9141 27.4042C55.7199 27.7264 55.7148 28.0875 56.1679 28.6333C56.2501 28.7315 57.9821 28.2508 57.9778 28.1084ZM89.9667 27.1869C89.9266 27.1945 89.3623 28.3567 89.3786 28.4011C89.7872 29.3372 90.9106 27.0192 89.9667 27.1869ZM65.3701 14.4585C64.734 15.0854 64.9519 17.3527 65.6518 16.4961C66.1883 15.8144 66.1227 13.7234 65.3701 14.4585ZM44.1863 184.52C44.1489 184.55 44.21 185.482 44.4115 185.437C45.0415 185.302 44.7481 184.061 44.1863 184.52ZM82.1491 26.8821C82.031 26.2199 81.9755 25.5887 81.9395 25.0183L81.9442 25.0387C81.5121 20.7768 83.0275 18.2667 84.1054 23.513C84.3156 24.5843 82.6628 21.4515 82.7585 22.8572C82.8078 23.5621 82.998 24.1641 83.2431 24.724C83.244 24.7276 83.2464 24.7383 83.2472 24.7419C83.8398 26.2962 84.7966 27.4226 84.5888 29.3772C84.527 29.8844 82.1809 27.2238 82.1434 26.8733C82.1453 26.8763 82.1472 26.8791 82.1491 26.8821ZM15.6189 143.619C15.646 143.661 16.9251 143.91 16.9638 143.881C17.769 143.247 15.2262 142.753 15.6189 143.619ZM80.8295 173.746C80.9261 173.722 82.5793 171.175 82.5769 171.059C82.3529 169.063 79.0144 174.199 80.8295 173.746ZM23.4041 91.1814C21.9146 90.6394 20.7427 89.5257 20.6455 88.0606C21.5834 89.088 22.5225 90.1063 23.4041 91.1814Z" fill="white"/>
</svg>
