<?xml version="1.0" encoding="UTF-8" standalone="no"?>
<svg
   width="1365.173"
   height="192.52901"
   viewBox="0 0 1365.173 192.52901"
   fill="none"
   version="1.1"
   id="svg39"
   sodipodi:docname="google-logo-resized.svg"
   inkscape:version="1.4 (e7c3feb1, 2024-10-09)"
   xmlns:inkscape="http://www.inkscape.org/namespaces/inkscape"
   xmlns:sodipodi="http://sodipodi.sourceforge.net/DTD/sodipodi-0.dtd"
   xmlns="http://www.w3.org/2000/svg"
   xmlns:svg="http://www.w3.org/2000/svg">
  <sodipodi:namedview
     id="namedview39"
     pagecolor="#ffffff"
     bordercolor="#000000"
     borderopacity="0.25"
     inkscape:showpageshadow="2"
     inkscape:pageopacity="0.0"
     inkscape:pagecheckerboard="0"
     inkscape:deskcolor="#d1d1d1"
     inkscape:zoom="0.55"
     inkscape:cx="677.27273"
     inkscape:cy="671.81818"
     inkscape:window-width="1920"
     inkscape:window-height="1080"
     inkscape:window-x="0"
     inkscape:window-y="0"
     inkscape:window-maximized="0"
     inkscape:current-layer="svg39" />
  <path
     d="m 1352.103,46.37 c -3.58,0 -6.68,-1.252 -9.31,-3.758 -2.5,-2.626 -3.76,-5.728 -3.76,-9.308 0,-3.58 1.26,-6.623 3.76,-9.128 2.63,-2.506 5.73,-3.759 9.31,-3.759 3.58,0 6.62,1.253 9.13,3.759 2.62,2.505 3.94,5.548 3.94,9.128 0,3.58 -1.32,6.682 -3.94,9.308 -2.51,2.506 -5.55,3.758 -9.13,3.758 z m -9.67,104.71 V 59.795 h 19.34 v 91.285 z"
     fill="#ffffff"
     id="path1" />
  <path
     d="M 1247.023,151.08 V 59.795 h 18.26 v 12.529 h 1.07 c 2.62,-4.415 6.5,-8.055 11.63,-10.918 5.25,-2.984 10.98,-4.475 17.19,-4.475 11.21,0 19.63,3.341 25.23,10.023 5.61,6.683 8.42,15.513 8.42,26.491 v 57.635 h -19.15 V 95.951 c 0,-7.398 -1.85,-12.768 -5.55,-16.109 -3.7,-3.461 -8.54,-5.191 -14.5,-5.191 -4.66,0 -8.71,1.313 -12.17,3.938 -3.46,2.506 -6.21,5.847 -8.24,10.023 -1.91,4.177 -2.86,8.651 -2.86,13.424 v 49.044 z"
     fill="#ffffff"
     id="path2" />
  <path
     d="m 1223.213,46.37 c -3.58,0 -6.68,-1.252 -9.3,-3.758 -2.51,-2.626 -3.76,-5.728 -3.76,-9.308 0,-3.58 1.25,-6.623 3.76,-9.128 2.62,-2.506 5.72,-3.759 9.3,-3.759 3.58,0 6.63,1.253 9.13,3.759 2.63,2.505 3.94,5.548 3.94,9.128 0,3.58 -1.31,6.682 -3.94,9.308 -2.5,2.506 -5.55,3.758 -9.13,3.758 z m -9.66,104.71 V 59.795 h 19.33 v 91.285 z"
     fill="#ffffff"
     id="path3" />
  <path
     d="M 1062.373,151.08 V 59.795 h 18.26 v 12.529 h 1.07 c 2.63,-4.415 6.45,-8.055 11.46,-10.918 5.01,-2.984 10.56,-4.475 16.64,-4.475 6.81,0 12.59,1.611 17.37,4.833 4.77,3.221 8.17,7.279 10.2,12.171 2.98,-4.773 7.04,-8.771 12.17,-11.992 5.13,-3.342 11.4,-5.012 18.79,-5.012 10.74,0 18.74,3.281 23.99,9.844 5.25,6.444 7.87,15.036 7.87,25.775 v 58.53 h -19.15 V 95.772 c 0,-7.279 -1.61,-12.589 -4.83,-15.93 -3.1,-3.461 -7.46,-5.191 -13.07,-5.191 -4.41,0 -8.29,1.253 -11.63,3.759 -3.34,2.386 -5.97,5.668 -7.88,9.844 -1.79,4.177 -2.68,8.83 -2.68,13.961 v 48.865 h -19.15 V 95.772 c 0,-7.279 -1.61,-12.589 -4.84,-15.93 -3.22,-3.461 -7.75,-5.191 -13.6,-5.191 -4.3,0 -8.05,1.253 -11.28,3.759 -3.22,2.506 -5.78,5.847 -7.69,10.023 -1.79,4.177 -2.69,8.83 -2.69,13.961 v 48.686 z"
     fill="#ffffff"
     id="path4" />
  <path
     d="m 1008.283,153.944 c -8.95,0 -16.94,-2.089 -23.98,-6.265 -7.04,-4.176 -12.59,-9.904 -16.65,-17.183 -3.94,-7.279 -5.91,-15.572 -5.91,-24.88 0,-8.711 1.91,-16.765 5.73,-24.163 3.82,-7.399 9.13,-13.305 15.93,-17.721 6.92,-4.534 14.86,-6.801 23.81,-6.801 9.42,0 17.42,2.028 23.98,6.086 6.68,4.057 11.76,9.605 15.22,16.646 3.46,7.04 5.19,14.975 5.19,23.805 0,1.313 -0.06,2.506 -0.18,3.58 0,1.074 -0.06,1.909 -0.18,2.506 h -70.52 c 0.95,9.069 4.11,15.871 9.48,20.405 5.49,4.534 11.7,6.802 18.62,6.802 6.2,0 11.33,-1.373 15.39,-4.117 4.06,-2.864 7.28,-6.384 9.67,-10.561 l 15.93,7.697 c -3.94,7.16 -9.31,13.007 -16.11,17.541 -6.8,4.415 -15.28,6.623 -25.42,6.623 z m -0.89,-80.546 c -6.45,0 -11.94,1.969 -16.47,5.907 -4.53,3.937 -7.58,9.188 -9.13,15.751 h 50.66 c -0.24,-3.103 -1.26,-6.325 -3.05,-9.666 -1.79,-3.341 -4.53,-6.145 -8.23,-8.412 -3.58,-2.387 -8.17,-3.58 -13.78,-3.58 z"
     fill="#ffffff"
     id="path5" />
  <path
     d="m 890.063,153.944 c -9.19,0 -17.84,-1.671 -25.95,-5.012 -8,-3.341 -15.1,-7.995 -21.3,-13.961 -6.21,-6.086 -11.1,-13.186 -14.68,-21.3 -3.46,-8.234 -5.19,-17.124 -5.19,-26.67 0,-9.546 1.73,-18.376 5.19,-26.49 3.58,-8.234 8.41,-15.334 14.5,-21.3 6.2,-6.086 13.36,-10.799 21.48,-14.14 8.11,-3.342 16.76,-5.012 25.95,-5.012 9.78,0 18.79,1.73 27.03,5.191 8.35,3.46 15.33,8.293 20.94,14.498 l -13.6,13.424 c -4.18,-4.654 -9.19,-8.234 -15.04,-10.739 -5.73,-2.506 -12.17,-3.759 -19.33,-3.759 -8.47,0 -16.29,2.028 -23.45,6.086 -7.16,3.937 -12.94,9.546 -17.36,16.825 -4.3,7.159 -6.44,15.631 -6.44,25.416 0,9.785 2.2,18.317 6.62,25.596 4.41,7.16 10.2,12.768 17.36,16.825 7.16,3.938 14.98,5.907 23.45,5.907 7.76,0 14.8,-1.432 21.12,-4.296 6.32,-2.983 11.4,-7.16 15.21,-12.529 3.94,-5.37 6.33,-11.814 7.16,-19.331 h -43.85 V 81.811 h 62.29 c 0.72,3.221 1.07,6.622 1.07,10.202 v 0.179 c 0,12.41 -2.74,23.269 -8.23,32.576 -5.37,9.188 -12.83,16.348 -22.37,21.479 -9.55,5.131 -20.41,7.697 -32.58,7.697 z"
     fill="#ffffff"
     id="path6" />
  <path
     d="m 737.493,153.865 c -8.95,0 -16.95,-2.088 -23.987,-6.265 -7.041,-4.177 -12.59,-9.905 -16.647,-17.184 -3.938,-7.279 -5.907,-15.573 -5.907,-24.881 0,-8.711 1.909,-16.766 5.728,-24.165 3.818,-7.399 9.129,-13.306 15.931,-17.721 6.922,-4.535 14.852,-6.802 23.802,-6.802 9.43,0 17.43,2.029 23.99,6.086 6.68,4.057 11.75,9.606 15.22,16.647 3.46,7.041 5.19,14.976 5.19,23.807 0,1.313 -0.06,2.506 -0.18,3.58 0,1.074 -0.06,1.909 -0.18,2.506 H 701.871 V 94.974 h 59.782 c -0.12,-2.267 -0.71,-4.654 -1.79,-7.16 -1.07,-2.625 -2.62,-5.012 -4.65,-7.16 -2.03,-2.148 -4.59,-3.878 -7.7,-5.191 -3.1,-1.432 -6.74,-2.148 -10.92,-2.148 -5.25,0 -9.9,1.372 -13.96,4.117 -4.056,2.625 -7.218,6.325 -9.485,11.098 -2.268,4.773 -3.401,10.322 -3.401,16.647 0,6.921 1.312,12.709 3.938,17.363 2.625,4.654 6.088,8.174 10.378,10.561 4.3,2.387 8.95,3.58 13.97,3.58 6.08,0 11.15,-1.372 15.21,-4.117 4.18,-2.864 7.46,-6.384 9.85,-10.561 l 15.93,7.697 c -3.94,7.16 -9.31,13.007 -16.11,17.542 -6.81,4.415 -15.28,6.623 -25.42,6.623 z"
     fill="#ffffff"
     id="path7" />
  <path
     d="M 661.695,151.001 V 22.837 h 19.332 v 128.164 z"
     fill="#ffffff"
     id="path8" />
  <path
     d="m 602.383,192.529 c -7.995,0 -14.917,-1.313 -20.764,-3.938 -5.728,-2.506 -10.382,-5.788 -13.962,-9.845 -3.58,-3.938 -6.146,-7.995 -7.697,-12.172 l 17.9,-7.518 c 1.909,4.773 4.952,8.652 9.129,11.635 4.296,3.103 9.427,4.654 15.394,4.654 8.473,0 15.096,-2.506 19.869,-7.518 4.773,-5.012 7.16,-12.112 7.16,-21.301 v -8.771 h -1.074 c -2.864,4.177 -6.802,7.578 -11.814,10.203 -5.012,2.625 -10.8,3.938 -17.363,3.938 -7.757,0 -14.917,-1.969 -21.48,-5.907 -6.444,-3.938 -11.635,-9.427 -15.573,-16.468 -3.819,-7.16 -5.728,-15.513 -5.728,-25.06 0,-9.666 1.909,-18.019 5.728,-25.06 3.938,-7.16 9.129,-12.709 15.573,-16.647 6.563,-3.938 13.723,-5.907 21.48,-5.907 6.563,0 12.351,1.313 17.363,3.938 5.012,2.506 8.95,5.967 11.814,10.382 h 1.074 V 59.711 h 18.437 v 86.457 c 0,9.905 -1.969,18.318 -5.907,25.239 -3.819,6.921 -9.129,12.172 -15.931,15.752 -6.802,3.58 -14.678,5.37 -23.628,5.37 z m 0.179,-58.175 c 4.773,0 9.189,-1.134 13.246,-3.401 4.177,-2.387 7.458,-5.788 9.845,-10.203 2.506,-4.535 3.759,-9.964 3.759,-16.289 0,-6.683 -1.253,-12.232 -3.759,-16.647 -2.387,-4.415 -5.668,-7.757 -9.845,-10.024 -4.057,-2.267 -8.473,-3.401 -13.246,-3.401 -4.773,0 -9.248,1.134 -13.425,3.401 -4.057,2.267 -7.339,5.668 -9.845,10.203 -2.506,4.415 -3.759,9.905 -3.759,16.468 0,6.444 1.253,11.933 3.759,16.468 2.506,4.415 5.788,7.757 9.845,10.024 4.177,2.267 8.652,3.401 13.425,3.401 z"
     fill="#ffffff"
     id="path9" />
  <path
     d="m 501.164,153.865 c -9.427,0 -17.721,-2.148 -24.881,-6.444 -7.16,-4.296 -12.769,-10.084 -16.826,-17.363 -4.057,-7.399 -6.086,-15.633 -6.086,-24.702 0,-9.069 2.029,-17.244 6.086,-24.523 4.057,-7.399 9.666,-13.246 16.826,-17.542 7.16,-4.296 15.454,-6.444 24.881,-6.444 9.308,0 17.542,2.208 24.702,6.623 7.16,4.296 12.769,10.084 16.826,17.363 4.057,7.279 6.086,15.454 6.086,24.523 0,9.069 -2.029,17.303 -6.086,24.702 -4.057,7.279 -9.666,13.067 -16.826,17.363 -7.16,4.296 -15.394,6.444 -24.702,6.444 z m 0,-17.721 c 5.012,0 9.666,-1.193 13.962,-3.58 4.296,-2.506 7.757,-6.026 10.382,-10.561 2.745,-4.654 4.117,-10.203 4.117,-16.647 0,-6.444 -1.372,-11.933 -4.117,-16.468 -2.625,-4.654 -6.086,-8.174 -10.382,-10.561 -4.296,-2.506 -8.95,-3.759 -13.962,-3.759 -5.012,0 -9.726,1.253 -14.141,3.759 -4.296,2.387 -7.816,5.907 -10.561,10.561 -2.625,4.535 -3.938,10.024 -3.938,16.468 0,6.444 1.313,11.993 3.938,16.647 2.745,4.535 6.325,8.055 10.74,10.561 4.415,2.387 9.069,3.58 13.962,3.58 z"
     fill="#ffffff"
     id="path10" />
  <path
     d="m 398.155,153.865 c -9.427,0 -17.721,-2.148 -24.881,-6.444 -7.16,-4.296 -12.769,-10.084 -16.826,-17.363 -4.057,-7.399 -6.086,-15.633 -6.086,-24.702 0,-9.069 2.029,-17.244 6.086,-24.523 4.057,-7.399 9.666,-13.246 16.826,-17.542 7.16,-4.296 15.454,-6.444 24.881,-6.444 9.308,0 17.542,2.208 24.702,6.623 7.16,4.296 12.769,10.084 16.826,17.363 4.057,7.279 6.086,15.454 6.086,24.523 0,9.069 -2.029,17.303 -6.086,24.702 -4.057,7.279 -9.666,13.067 -16.826,17.363 -7.16,4.296 -15.394,6.444 -24.702,6.444 z m 0,-17.721 c 5.012,0 9.666,-1.193 13.962,-3.58 4.296,-2.506 7.757,-6.026 10.382,-10.561 2.745,-4.654 4.117,-10.203 4.117,-16.647 0,-6.444 -1.372,-11.933 -4.117,-16.468 -2.625,-4.654 -6.086,-8.174 -10.382,-10.561 -4.296,-2.506 -8.95,-3.759 -13.962,-3.759 -5.012,0 -9.726,1.253 -14.141,3.759 -4.296,2.387 -7.816,5.907 -10.561,10.561 -2.625,4.535 -3.938,10.024 -3.938,16.468 0,6.444 1.313,11.993 3.938,16.647 2.745,4.535 6.325,8.055 10.74,10.561 4.415,2.387 9.069,3.58 13.962,3.58 z"
     fill="#ffffff"
     id="path11" />
  <path
     d="m 279.122,153.865 c -9.189,0 -17.841,-1.671 -25.955,-5.012 -8.115,-3.341 -15.275,-7.995 -21.48,-13.962 -6.086,-6.086 -10.919,-13.186 -14.499,-21.301 -3.461,-8.234 -5.191,-17.124 -5.191,-26.671 0,-9.547 1.73,-18.377 5.191,-26.492 3.58,-8.234 8.413,-15.334 14.499,-21.301 6.205,-6.086 13.365,-10.8 21.48,-14.141 8.114,-3.341 16.766,-5.012 25.955,-5.012 9.785,0 18.795,1.73 27.029,5.191 8.353,3.461 15.334,8.294 20.943,14.499 L 313.49,53.088 c -2.745,-3.103 -5.907,-5.728 -9.487,-7.876 -3.461,-2.148 -7.28,-3.759 -11.456,-4.833 -4.177,-1.193 -8.652,-1.79 -13.425,-1.79 -6.325,0 -12.351,1.134 -18.079,3.401 -5.728,2.267 -10.8,5.549 -15.215,9.845 -4.296,4.177 -7.697,9.248 -10.203,15.215 -2.506,5.847 -3.759,12.47 -3.759,19.869 0,7.399 1.253,14.081 3.759,20.048 2.625,5.847 6.086,10.919 10.382,15.215 4.415,4.177 9.487,7.399 15.215,9.666 5.728,2.267 11.754,3.401 18.079,3.401 5.847,0 11.277,-0.835 16.289,-2.506 5.131,-1.671 9.606,-4.057 13.425,-7.16 3.818,-3.103 6.921,-6.862 9.308,-11.277 2.386,-4.535 3.878,-9.606 4.475,-15.215 H 278.943 V 81.728 h 62.292 c 0.238,1.432 0.477,3.103 0.716,5.012 0.238,1.79 0.358,3.52 0.358,5.191 v 0.179 c 0,9.189 -1.611,17.602 -4.833,25.239 -3.103,7.637 -7.459,14.201 -13.067,19.69 -5.609,5.37 -12.292,9.547 -20.048,12.53 -7.638,2.864 -16.051,4.296 -25.239,4.296 z"
     fill="#ffffff"
     id="path12" />
  <path
     d="M 151.581,75.996 C 138.484,70.358 127.024,62.623 117.198,52.801 107.376,42.98 99.642,31.516 94.004,18.418 91.839,13.399 90.1,8.239 88.767,2.949 88.332,1.22 86.781,0.002 84.999,0.002 83.216,0.002 81.665,1.22 81.23,2.949 79.897,8.239 78.158,13.394 75.993,18.418 70.355,31.516 62.621,42.98 52.799,52.801 42.977,62.623 31.513,70.358 18.416,75.996 13.397,78.16 8.237,79.899 2.947,81.233 1.217,81.667 0,83.218 0,85.001 c 0,1.782 1.217,3.333 2.947,3.768 5.29,1.333 10.445,3.073 15.469,5.237 13.097,5.638 24.557,13.373 34.383,23.194 9.827,9.822 17.556,21.286 23.194,34.383 2.165,5.02 3.904,10.179 5.237,15.469 0.435,1.73 1.986,2.947 3.769,2.947 1.782,0 3.333,-1.217 3.768,-2.947 1.333,-5.29 3.072,-10.444 5.237,-15.469 5.638,-13.097 13.372,-24.556 23.194,-34.383 9.822,-9.821 21.286,-17.556 34.383,-23.194 5.019,-2.164 10.179,-3.904 15.469,-5.237 1.73,-0.435 2.947,-1.986 2.947,-3.768 0,-1.783 -1.217,-3.334 -2.947,-3.768 -5.29,-1.334 -10.445,-3.073 -15.469,-5.237 z"
     fill="#ffffff"
     id="path13" />
  <mask
     id="mask0_12141_443"
     maskUnits="userSpaceOnUse"
     x="281"
     y="450"
     width="171"
     height="171">
    <path
       d="m 366.296,450.699 c 1.783,0 3.333,1.218 3.768,2.947 1.333,5.29 3.073,10.45 5.237,15.469 5.638,13.097 13.373,24.561 23.194,34.383 9.827,9.822 21.286,17.556 34.383,23.194 5.025,2.165 10.18,3.904 15.47,5.238 1.729,0.435 2.946,1.986 2.946,3.768 0,1.783 -1.217,3.333 -2.946,3.768 -5.29,1.333 -10.45,3.073 -15.47,5.237 -13.097,5.638 -24.561,13.373 -34.383,23.194 -9.821,9.827 -17.556,21.286 -23.194,34.383 -2.164,5.025 -3.904,10.18 -5.237,15.47 -0.435,1.729 -1.985,2.946 -3.768,2.946 -1.782,0 -3.333,-1.217 -3.768,-2.946 -1.334,-5.29 -3.073,-10.45 -5.238,-15.47 -5.638,-13.097 -13.368,-24.561 -23.194,-34.383 -9.826,-9.821 -21.286,-17.556 -34.383,-23.194 -5.024,-2.164 -10.179,-3.904 -15.469,-5.237 -1.729,-0.435 -2.947,-1.985 -2.947,-3.768 0,-1.782 1.218,-3.334 2.947,-3.768 5.29,-1.334 10.45,-3.073 15.469,-5.238 13.097,-5.638 24.561,-13.372 34.383,-23.194 9.822,-9.822 17.556,-21.286 23.194,-34.383 2.165,-5.024 3.904,-10.179 5.238,-15.469 0.434,-1.729 1.986,-2.947 3.768,-2.947 z"
       fill="#000000"
       id="path14" />
    <path
       d="m 366.296,450.699 c 1.783,0 3.333,1.218 3.768,2.947 1.333,5.29 3.073,10.45 5.237,15.469 5.638,13.097 13.373,24.561 23.194,34.383 9.827,9.822 21.286,17.556 34.383,23.194 5.025,2.165 10.18,3.904 15.47,5.238 1.729,0.435 2.946,1.986 2.946,3.768 0,1.783 -1.217,3.333 -2.946,3.768 -5.29,1.333 -10.45,3.073 -15.47,5.237 -13.097,5.638 -24.561,13.373 -34.383,23.194 -9.821,9.827 -17.556,21.286 -23.194,34.383 -2.164,5.025 -3.904,10.18 -5.237,15.47 -0.435,1.729 -1.985,2.946 -3.768,2.946 -1.782,0 -3.333,-1.217 -3.768,-2.946 -1.334,-5.29 -3.073,-10.45 -5.238,-15.47 -5.638,-13.097 -13.368,-24.561 -23.194,-34.383 -9.826,-9.821 -21.286,-17.556 -34.383,-23.194 -5.024,-2.164 -10.179,-3.904 -15.469,-5.237 -1.729,-0.435 -2.947,-1.985 -2.947,-3.768 0,-1.782 1.218,-3.334 2.947,-3.768 5.29,-1.334 10.45,-3.073 15.469,-5.238 13.097,-5.638 24.561,-13.372 34.383,-23.194 9.822,-9.822 17.556,-21.286 23.194,-34.383 2.165,-5.024 3.904,-10.179 5.238,-15.469 0.434,-1.729 1.986,-2.947 3.768,-2.947 z"
       fill="url(#paint0_linear_12141_443)"
       id="path15" />
  </mask>
  <g
     mask="url(#mask0_12141_443)"
     id="g26"
     transform="translate(-281.297,-450.699)">
    <g
       filter="url(#filter0_f_12141_443)"
       id="g15">
      <ellipse
         cx="37.7407"
         cy="44.402802"
         rx="37.7407"
         ry="44.402802"
         transform="matrix(0.942341,0.334654,-0.334652,0.942342,260.103,487.285)"
         fill="#ffe432"
         id="ellipse15" />
    </g>
    <g
       filter="url(#filter1_f_12141_443)"
       id="g16">
      <ellipse
         cx="353.159"
         cy="457.47699"
         rx="48.859402"
         ry="49.933601"
         fill="#fc413d"
         id="ellipse16" />
    </g>
    <g
       filter="url(#filter2_f_12141_443)"
       id="g17">
      <ellipse
         cx="330.94101"
         cy="601.02502"
         rx="51.0644"
         ry="66.151901"
         transform="rotate(-2.79865,330.941,601.025)"
         fill="#00b95c"
         id="ellipse17" />
    </g>
    <g
       filter="url(#filter3_f_12141_443)"
       id="g18">
      <ellipse
         cx="330.94101"
         cy="601.02502"
         rx="51.0644"
         ry="66.151901"
         transform="rotate(-2.79865,330.941,601.025)"
         fill="#00b95c"
         id="ellipse18" />
    </g>
    <g
       filter="url(#filter4_f_12141_443)"
       id="g19">
      <ellipse
         cx="333.742"
         cy="597.95001"
         rx="50.0508"
         ry="55.101398"
         transform="rotate(-31.3178,333.742,597.95)"
         fill="#00b95c"
         id="ellipse19" />
    </g>
    <g
       filter="url(#filter5_f_12141_443)"
       id="g20">
      <ellipse
         cx="457.83301"
         cy="517.04498"
         rx="48.059502"
         ry="46.279499"
         fill="#3186ff"
         id="ellipse20" />
    </g>
    <g
       filter="url(#filter6_f_12141_443)"
       id="g21">
      <ellipse
         cx="55.592701"
         cy="58.637001"
         rx="55.592701"
         ry="58.637001"
         transform="matrix(0.795985,0.605316,-0.605314,0.795987,273.81,430.955)"
         fill="#fbbc04"
         id="ellipse21" />
    </g>
    <g
       filter="url(#filter7_f_12141_443)"
       id="g22">
      <ellipse
         cx="64.097702"
         cy="59.212601"
         rx="64.097702"
         ry="59.212601"
         transform="matrix(0.824033,0.566542,-0.566539,0.824035,386.573,451.523)"
         fill="#3186ff"
         id="ellipse22" />
    </g>
    <g
       filter="url(#filter8_f_12141_443)"
       id="g23">
      <path
         d="m 425.331,444.579 c 7.422,10.091 -2.114,29.709 -21.299,43.82 -19.185,14.11 -40.753,17.369 -48.175,7.279 -7.421,-10.09 2.115,-29.709 21.3,-43.819 19.184,-14.111 40.753,-17.37 48.174,-7.28 z"
         fill="#749bff"
         id="path22" />
    </g>
    <g
       filter="url(#filter9_f_12141_443)"
       id="g24">
      <ellipse
         cx="333.43301"
         cy="459.491"
         rx="73.272797"
         ry="45.5485"
         transform="rotate(-42.848,333.433,459.491)"
         fill="#fc413d"
         id="ellipse23" />
    </g>
    <g
       filter="url(#filter10_f_12141_443)"
       id="g25">
      <ellipse
         cx="316.879"
         cy="573.164"
         rx="39.264099"
         ry="22.834"
         transform="rotate(35.592,316.879,573.164)"
         fill="#ffee48"
         id="ellipse24" />
    </g>
  </g>
  <defs
     id="defs39">
    <filter
       id="filter0_f_12141_443"
       x="229.368"
       y="485.15302"
       width="102.881"
       height="113.21"
       filterUnits="userSpaceOnUse"
       color-interpolation-filters="sRGB">
      <feFlood
         flood-opacity="0"
         result="BackgroundImageFix"
         id="feFlood26" />
      <feBlend
         mode="normal"
         in="SourceGraphic"
         in2="BackgroundImageFix"
         result="shape"
         id="feBlend26" />
      <feGaussianBlur
         stdDeviation="6.44324"
         result="effect1_foregroundBlur_12141_443"
         id="feGaussianBlur26" />
    </filter>
    <filter
       id="filter1_f_12141_443"
       x="242"
       y="345.24399"
       width="222.31799"
       height="224.466"
       filterUnits="userSpaceOnUse"
       color-interpolation-filters="sRGB">
      <feFlood
         flood-opacity="0"
         result="BackgroundImageFix"
         id="feFlood27" />
      <feBlend
         mode="normal"
         in="SourceGraphic"
         in2="BackgroundImageFix"
         result="shape"
         id="feBlend27" />
      <feGaussianBlur
         stdDeviation="31.1497"
         result="effect1_foregroundBlur_12141_443"
         id="feGaussianBlur27" />
    </filter>
    <filter
       id="filter2_f_12141_443"
       x="226.873"
       y="481.944"
       width="208.136"
       height="238.16299"
       filterUnits="userSpaceOnUse"
       color-interpolation-filters="sRGB">
      <feFlood
         flood-opacity="0"
         result="BackgroundImageFix"
         id="feFlood28" />
      <feBlend
         mode="normal"
         in="SourceGraphic"
         in2="BackgroundImageFix"
         result="shape"
         id="feBlend28" />
      <feGaussianBlur
         stdDeviation="26.4803"
         result="effect1_foregroundBlur_12141_443"
         id="feGaussianBlur28" />
    </filter>
    <filter
       id="filter3_f_12141_443"
       x="226.873"
       y="481.944"
       width="208.136"
       height="238.16299"
       filterUnits="userSpaceOnUse"
       color-interpolation-filters="sRGB">
      <feFlood
         flood-opacity="0"
         result="BackgroundImageFix"
         id="feFlood29" />
      <feBlend
         mode="normal"
         in="SourceGraphic"
         in2="BackgroundImageFix"
         result="shape"
         id="feBlend29" />
      <feGaussianBlur
         stdDeviation="26.4803"
         result="effect1_foregroundBlur_12141_443"
         id="feGaussianBlur29" />
    </filter>
    <filter
       id="filter4_f_12141_443"
       x="229.312"
       y="491.19601"
       width="208.86"
       height="213.509"
       filterUnits="userSpaceOnUse"
       color-interpolation-filters="sRGB">
      <feFlood
         flood-opacity="0"
         result="BackgroundImageFix"
         id="feFlood30" />
      <feBlend
         mode="normal"
         in="SourceGraphic"
         in2="BackgroundImageFix"
         result="shape"
         id="feBlend30" />
      <feGaussianBlur
         stdDeviation="26.4803"
         result="effect1_foregroundBlur_12141_443"
         id="feGaussianBlur30" />
    </filter>
    <filter
       id="filter5_f_12141_443"
       x="359.44601"
       y="420.43799"
       width="196.77499"
       height="193.215"
       filterUnits="userSpaceOnUse"
       color-interpolation-filters="sRGB">
      <feFlood
         flood-opacity="0"
         result="BackgroundImageFix"
         id="feFlood31" />
      <feBlend
         mode="normal"
         in="SourceGraphic"
         in2="BackgroundImageFix"
         result="shape"
         id="feBlend31" />
      <feGaussianBlur
         stdDeviation="25.164"
         result="effect1_foregroundBlur_12141_443"
         id="feGaussianBlur31" />
    </filter>
    <filter
       id="filter6_f_12141_443"
       x="180.226"
       y="408.125"
       width="204.681"
       height="206.311"
       filterUnits="userSpaceOnUse"
       color-interpolation-filters="sRGB">
      <feFlood
         flood-opacity="0"
         result="BackgroundImageFix"
         id="feFlood32" />
      <feBlend
         mode="normal"
         in="SourceGraphic"
         in2="BackgroundImageFix"
         result="shape"
         id="feBlend32" />
      <feGaussianBlur
         stdDeviation="22.8058"
         result="effect1_foregroundBlur_12141_443"
         id="feGaussianBlur32" />
    </filter>
    <filter
       id="filter7_f_12141_443"
       x="302.53299"
       y="435.07001"
       width="206.62399"
       height="203.12"
       filterUnits="userSpaceOnUse"
       color-interpolation-filters="sRGB">
      <feFlood
         flood-opacity="0"
         result="BackgroundImageFix"
         id="feFlood33" />
      <feBlend
         mode="normal"
         in="SourceGraphic"
         in2="BackgroundImageFix"
         result="shape"
         id="feBlend33" />
      <feGaussianBlur
         stdDeviation="20.3665"
         result="effect1_foregroundBlur_12141_443"
         id="feGaussianBlur33" />
    </filter>
    <filter
       id="filter8_f_12141_443"
       x="316.89001"
       y="402.26801"
       width="147.408"
       height="135.72099"
       filterUnits="userSpaceOnUse"
       color-interpolation-filters="sRGB">
      <feFlood
         flood-opacity="0"
         result="BackgroundImageFix"
         id="feFlood34" />
      <feBlend
         mode="normal"
         in="SourceGraphic"
         in2="BackgroundImageFix"
         result="shape"
         id="feBlend34" />
      <feGaussianBlur
         stdDeviation="18.2242"
         result="effect1_foregroundBlur_12141_443"
         id="feGaussianBlur34" />
    </filter>
    <filter
       id="filter9_f_12141_443"
       x="240.62601"
       y="368.715"
       width="185.614"
       height="181.55299"
       filterUnits="userSpaceOnUse"
       color-interpolation-filters="sRGB">
      <feFlood
         flood-opacity="0"
         result="BackgroundImageFix"
         id="feFlood35" />
      <feBlend
         mode="normal"
         in="SourceGraphic"
         in2="BackgroundImageFix"
         result="shape"
         id="feBlend35" />
      <feGaussianBlur
         stdDeviation="15.3926"
         result="effect1_foregroundBlur_12141_443"
         id="feGaussianBlur35" />
    </filter>
    <filter
       id="filter10_f_12141_443"
       x="244.18401"
       y="505.617"
       width="145.39"
       height="135.09399"
       filterUnits="userSpaceOnUse"
       color-interpolation-filters="sRGB">
      <feFlood
         flood-opacity="0"
         result="BackgroundImageFix"
         id="feFlood36" />
      <feBlend
         mode="normal"
         in="SourceGraphic"
         in2="BackgroundImageFix"
         result="shape"
         id="feBlend36" />
      <feGaussianBlur
         stdDeviation="19.051"
         result="effect1_foregroundBlur_12141_443"
         id="feGaussianBlur36" />
    </filter>
    <linearGradient
       id="paint0_linear_12141_443"
       x1="329.62201"
       y1="564.44299"
       x2="417.91599"
       y2="490.00201"
       gradientUnits="userSpaceOnUse">
      <stop
         stop-color="#4893FC"
         id="stop36" />
      <stop
         offset="0.27"
         stop-color="#4893FC"
         id="stop37" />
      <stop
         offset="0.776981"
         stop-color="#969DFF"
         id="stop38" />
      <stop
         offset="1"
         stop-color="#BD99FE"
         id="stop39" />
    </linearGradient>
  </defs>
</svg>
