<svg width="359" height="359" viewBox="0 0 359 359" fill="none" xmlns="http://www.w3.org/2000/svg">
<path d="M161.394 0H197.253V53.7979H161.394V0Z" fill="white"/>
<path d="M304.866 161.394H358.664V197.253H304.866V161.394Z" fill="white"/>
<path d="M161.394 304.866H197.253V358.664H161.394V304.866Z" fill="white"/>
<path d="M0 161.394H53.7979V197.253H0V161.394Z" fill="white"/>
<path d="M255.423 77.9059L293.468 39.8608L318.82 65.213L280.775 103.258L255.423 77.9059Z" fill="white"/>
<path d="M255.405 280.775L280.757 255.422L318.802 293.467L293.45 318.82L255.405 280.775Z" fill="white"/>
<path d="M39.8633 293.434L77.9083 255.389L103.26 280.741L65.2154 318.786L39.8633 293.434Z" fill="white"/>
<path d="M39.8799 65.213L65.232 39.8608L103.277 77.9059L77.9249 103.258L39.8799 65.213Z" fill="white"/>
<path d="M107.596 251.068H251.051V107.613H107.596V251.068ZM143.455 143.472H215.192V215.209H143.455V143.472Z" fill="white"/>
</svg>
