<svg width="160" height="77" viewBox="0 0 160 77" fill="none" xmlns="http://www.w3.org/2000/svg">
<mask id="path-1-outside-1_4290_1327" maskUnits="userSpaceOnUse" x="-1.39401" y="-3.43056" width="162.051" height="79.908" fill="black">
<rect fill="white" x="-1.39401" y="-3.43056" width="162.051" height="79.908"/>
<path d="M49.7002 26.6133L52.3762 26.4957L51.6708 10.4398L57.0228 10.2046L57.8457 28.9366L55.1697 29.0541L55.2873 31.7301L52.6113 31.8477L52.7289 34.5237L50.0529 34.6412L50.1704 37.3172L47.4944 37.4348L47.3769 34.7588L44.7009 34.8763L44.5833 32.2004L41.9073 32.3179L41.7898 29.6419L39.1138 29.7595L38.2909 11.0276L43.6428 10.7924L44.3482 26.8484L47.0242 26.7308L47.1418 29.4068L49.8177 29.2892L49.7002 26.6133ZM59.7058 10.0868L65.0577 9.85165L65.2929 15.2036L59.9409 15.4387L59.7058 10.0868ZM60.0584 18.1147L65.4104 17.8796L66.2333 36.6116L60.8814 36.8467L60.0584 18.1147ZM74.0471 30.906L82.0751 30.5533L81.6048 19.8493L73.5769 20.202L74.0471 30.906ZM73.4593 17.526L76.1353 17.4085L76.0177 14.7325L84.0457 14.3798L84.1633 17.0558L86.8393 16.9382L87.5446 32.9942L84.8686 33.1117L84.9862 35.7877L68.9302 36.4931L67.7546 9.73317L73.1066 9.49805L73.4593 17.526ZM89.5222 16.8204L92.1982 16.7028L92.0806 14.0268L105.461 13.439L105.578 16.115L108.254 15.9974L108.724 26.7014L95.3444 27.2892L95.462 29.9652L108.842 29.3774L108.96 32.0534L106.284 32.1709L106.401 34.8469L93.0211 35.4347L92.9036 32.7587L90.2276 32.8763L89.5222 16.8204ZM95.1093 21.9372L103.137 21.5845L103.02 18.9085L94.9918 19.2612L95.1093 21.9372ZM10.9277 59.0247L16.2797 58.7896L16.3972 61.4656L24.4252 61.1129L24.1901 55.761L13.4861 56.2312L13.3686 53.5552L10.6926 53.6728L10.2223 42.9688L12.8983 42.8512L12.7808 40.1753L26.1607 39.5875L26.2783 42.2634L28.9543 42.1459L29.1894 47.4979L23.8374 47.733L23.7198 45.057L15.6919 45.4097L15.927 50.7617L26.631 50.2914L26.7485 52.9674L29.4245 52.8498L29.8947 63.5538L27.2188 63.6714L27.3363 66.3474L13.9564 66.9352L13.8388 64.2592L11.1628 64.3767L10.9277 59.0247ZM43.3992 65.6417L35.3713 65.9944L35.2537 63.3184L32.5777 63.4359L31.7548 44.704L37.1068 44.4689L37.8121 60.5248L45.8401 60.1722L45.1347 44.1162L50.4867 43.8811L51.4272 65.289L46.0752 65.5241L45.9577 62.8481L43.2817 62.9657L43.3992 65.6417ZM58.6392 46.2041L61.3152 46.0865L61.1976 43.4105L66.5496 43.1754L66.6672 45.8514L72.0192 45.6163L71.9016 42.9403L77.2536 42.7052L77.3712 45.3812L80.0471 45.2636L80.8701 63.9955L75.5181 64.2307L74.8127 48.1747L69.4607 48.4098L70.1661 64.4658L64.8141 64.7009L64.1088 48.645L58.7568 48.8801L59.4621 64.936L54.1102 65.1711L53.1697 43.7632L58.5217 43.5281L58.6392 46.2041ZM88.0542 44.9119L90.7302 44.7943L90.6126 42.1183L95.9646 41.8832L96.0822 44.5592L101.434 44.3241L101.317 41.6481L106.669 41.4129L106.786 44.0889L109.462 43.9714L110.285 62.7033L104.933 62.9384L104.228 46.8825L98.8757 47.1176L99.5811 63.1735L94.2291 63.4087L93.5237 47.3527L88.1718 47.5878L88.8771 63.6438L83.5251 63.8789L82.5847 42.471L87.9366 42.2359L88.0542 44.9119ZM112.117 43.8547L114.793 43.7372L114.676 41.0612L128.056 40.4734L128.173 43.1494L130.849 43.0318L131.319 53.7358L117.939 54.3236L118.057 56.9996L131.437 56.4118L131.555 59.0878L128.879 59.2053L128.996 61.8813L115.616 62.4691L115.499 59.7931L112.823 59.9107L112.117 43.8547ZM117.704 48.9716L125.732 48.6189L125.615 45.9429L117.587 46.2956L117.704 48.9716ZM144.354 45.1197L141.678 45.2373L141.795 47.9132L139.119 48.0308L139.707 61.4108L134.355 61.6459L133.415 40.238L138.767 40.0028L138.884 42.6788L141.56 42.5613L141.443 39.8853L146.794 39.6502L146.912 42.3261L149.588 42.2086L149.706 44.8846L147.03 45.0021L147.147 47.6781L144.471 47.7957L144.354 45.1197Z"/>
</mask>
<path d="M49.7002 26.6133L52.3762 26.4957L51.6708 10.4398L57.0228 10.2046L57.8457 28.9366L55.1697 29.0541L55.2873 31.7301L52.6113 31.8477L52.7289 34.5237L50.0529 34.6412L50.1704 37.3172L47.4944 37.4348L47.3769 34.7588L44.7009 34.8763L44.5833 32.2004L41.9073 32.3179L41.7898 29.6419L39.1138 29.7595L38.2909 11.0276L43.6428 10.7924L44.3482 26.8484L47.0242 26.7308L47.1418 29.4068L49.8177 29.2892L49.7002 26.6133ZM59.7058 10.0868L65.0577 9.85165L65.2929 15.2036L59.9409 15.4387L59.7058 10.0868ZM60.0584 18.1147L65.4104 17.8796L66.2333 36.6116L60.8814 36.8467L60.0584 18.1147ZM74.0471 30.906L82.0751 30.5533L81.6048 19.8493L73.5769 20.202L74.0471 30.906ZM73.4593 17.526L76.1353 17.4085L76.0177 14.7325L84.0457 14.3798L84.1633 17.0558L86.8393 16.9382L87.5446 32.9942L84.8686 33.1117L84.9862 35.7877L68.9302 36.4931L67.7546 9.73317L73.1066 9.49805L73.4593 17.526ZM89.5222 16.8204L92.1982 16.7028L92.0806 14.0268L105.461 13.439L105.578 16.115L108.254 15.9974L108.724 26.7014L95.3444 27.2892L95.462 29.9652L108.842 29.3774L108.96 32.0534L106.284 32.1709L106.401 34.8469L93.0211 35.4347L92.9036 32.7587L90.2276 32.8763L89.5222 16.8204ZM95.1093 21.9372L103.137 21.5845L103.02 18.9085L94.9918 19.2612L95.1093 21.9372ZM10.9277 59.0247L16.2797 58.7896L16.3972 61.4656L24.4252 61.1129L24.1901 55.761L13.4861 56.2312L13.3686 53.5552L10.6926 53.6728L10.2223 42.9688L12.8983 42.8512L12.7808 40.1753L26.1607 39.5875L26.2783 42.2634L28.9543 42.1459L29.1894 47.4979L23.8374 47.733L23.7198 45.057L15.6919 45.4097L15.927 50.7617L26.631 50.2914L26.7485 52.9674L29.4245 52.8498L29.8947 63.5538L27.2188 63.6714L27.3363 66.3474L13.9564 66.9352L13.8388 64.2592L11.1628 64.3767L10.9277 59.0247ZM43.3992 65.6417L35.3713 65.9944L35.2537 63.3184L32.5777 63.4359L31.7548 44.704L37.1068 44.4689L37.8121 60.5248L45.8401 60.1722L45.1347 44.1162L50.4867 43.8811L51.4272 65.289L46.0752 65.5241L45.9577 62.8481L43.2817 62.9657L43.3992 65.6417ZM58.6392 46.2041L61.3152 46.0865L61.1976 43.4105L66.5496 43.1754L66.6672 45.8514L72.0192 45.6163L71.9016 42.9403L77.2536 42.7052L77.3712 45.3812L80.0471 45.2636L80.8701 63.9955L75.5181 64.2307L74.8127 48.1747L69.4607 48.4098L70.1661 64.4658L64.8141 64.7009L64.1088 48.645L58.7568 48.8801L59.4621 64.936L54.1102 65.1711L53.1697 43.7632L58.5217 43.5281L58.6392 46.2041ZM88.0542 44.9119L90.7302 44.7943L90.6126 42.1183L95.9646 41.8832L96.0822 44.5592L101.434 44.3241L101.317 41.6481L106.669 41.4129L106.786 44.0889L109.462 43.9714L110.285 62.7033L104.933 62.9384L104.228 46.8825L98.8757 47.1176L99.5811 63.1735L94.2291 63.4087L93.5237 47.3527L88.1718 47.5878L88.8771 63.6438L83.5251 63.8789L82.5847 42.471L87.9366 42.2359L88.0542 44.9119ZM112.117 43.8547L114.793 43.7372L114.676 41.0612L128.056 40.4734L128.173 43.1494L130.849 43.0318L131.319 53.7358L117.939 54.3236L118.057 56.9996L131.437 56.4118L131.555 59.0878L128.879 59.2053L128.996 61.8813L115.616 62.4691L115.499 59.7931L112.823 59.9107L112.117 43.8547ZM117.704 48.9716L125.732 48.6189L125.615 45.9429L117.587 46.2956L117.704 48.9716ZM144.354 45.1197L141.678 45.2373L141.795 47.9132L139.119 48.0308L139.707 61.4108L134.355 61.6459L133.415 40.238L138.767 40.0028L138.884 42.6788L141.56 42.5613L141.443 39.8853L146.794 39.6502L146.912 42.3261L149.588 42.2086L149.706 44.8846L147.03 45.0021L147.147 47.6781L144.471 47.7957L144.354 45.1197Z" fill="white"/>
<path d="M49.7002 26.6133L49.3052 17.6219L40.3139 18.0169L40.7089 27.0083L49.7002 26.6133ZM52.3762 26.4957L52.7712 35.487L61.7625 35.092L61.3675 26.1007L52.3762 26.4957ZM51.6708 10.4398L51.2758 1.44843L42.2845 1.84343L42.6795 10.8348L51.6708 10.4398ZM57.0228 10.2046L66.0141 9.80963L65.6191 0.818306L56.6278 1.21331L57.0228 10.2046ZM57.8457 28.9366L58.2407 37.9279L67.232 37.5329L66.837 28.5416L57.8457 28.9366ZM55.1697 29.0541L54.7747 20.0628L45.7834 20.4578L46.1784 29.4491L55.1697 29.0541ZM55.2873 31.7301L55.6823 40.7214L64.6736 40.3264L64.2786 31.3351L55.2873 31.7301ZM52.6113 31.8477L52.2163 22.8563L43.225 23.2514L43.62 32.2427L52.6113 31.8477ZM52.7289 34.5237L53.1239 43.515L62.1152 43.12L61.7202 34.1287L52.7289 34.5237ZM50.0529 34.6412L49.6579 25.6499L40.6665 26.0449L41.0615 35.0362L50.0529 34.6412ZM50.1704 37.3172L50.5654 46.3085L59.5568 45.9135L59.1618 36.9222L50.1704 37.3172ZM47.4944 37.4348L38.5031 37.8298L38.8981 46.8211L47.8894 46.4261L47.4944 37.4348ZM47.3769 34.7588L56.3682 34.3638L55.9732 25.3725L46.9819 25.7675L47.3769 34.7588ZM44.7009 34.8763L35.7096 35.2713L36.1046 44.2627L45.0959 43.8677L44.7009 34.8763ZM44.5833 32.2004L53.5747 31.8054L53.1797 22.814L44.1883 23.209L44.5833 32.2004ZM41.9073 32.3179L32.916 32.7129L33.311 41.7042L42.3023 41.3092L41.9073 32.3179ZM41.7898 29.6419L50.7811 29.2469L50.3861 20.2556L41.3948 20.6506L41.7898 29.6419ZM39.1138 29.7595L30.1225 30.1545L30.5175 39.1458L39.5088 38.7508L39.1138 29.7595ZM38.2909 11.0276L37.8959 2.03623L28.9045 2.43123L29.2995 11.4226L38.2909 11.0276ZM43.6428 10.7924L52.6342 10.3974L52.2392 1.40611L43.2478 1.80111L43.6428 10.7924ZM44.3482 26.8484L35.3569 27.2434L35.7519 36.2347L44.7432 35.8397L44.3482 26.8484ZM47.0242 26.7308L56.0155 26.3358L55.6205 17.3445L46.6292 17.7395L47.0242 26.7308ZM47.1418 29.4068L38.1504 29.8018L38.5454 38.7931L47.5368 38.3981L47.1418 29.4068ZM49.8177 29.2892L50.2128 38.2806L59.2041 37.8856L58.8091 28.8942L49.8177 29.2892ZM49.7002 26.6133L50.0952 35.6046L52.7712 35.487L52.3762 26.4957L51.9812 17.5044L49.3052 17.6219L49.7002 26.6133ZM52.3762 26.4957L61.3675 26.1007L60.6621 10.0448L51.6708 10.4398L42.6795 10.8348L43.3849 26.8907L52.3762 26.4957ZM51.6708 10.4398L52.0658 19.4311L57.4178 19.196L57.0228 10.2046L56.6278 1.21331L51.2758 1.44843L51.6708 10.4398ZM57.0228 10.2046L48.0315 10.5996L48.8544 29.3316L57.8457 28.9366L66.837 28.5416L66.0141 9.80963L57.0228 10.2046ZM57.8457 28.9366L57.4507 19.9452L54.7747 20.0628L55.1697 29.0541L55.5647 38.0455L58.2407 37.9279L57.8457 28.9366ZM55.1697 29.0541L46.1784 29.4491L46.296 32.1251L55.2873 31.7301L64.2786 31.3351L64.1611 28.6591L55.1697 29.0541ZM55.2873 31.7301L54.8923 22.7388L52.2163 22.8563L52.6113 31.8477L53.0063 40.839L55.6823 40.7214L55.2873 31.7301ZM52.6113 31.8477L43.62 32.2427L43.7375 34.9187L52.7289 34.5237L61.7202 34.1287L61.6026 31.4527L52.6113 31.8477ZM52.7289 34.5237L52.3339 25.5323L49.6579 25.6499L50.0529 34.6412L50.4479 43.6326L53.1239 43.515L52.7289 34.5237ZM50.0529 34.6412L41.0615 35.0362L41.1791 37.7122L50.1704 37.3172L59.1618 36.9222L59.0442 34.2462L50.0529 34.6412ZM50.1704 37.3172L49.7754 28.3259L47.0994 28.4435L47.4944 37.4348L47.8894 46.4261L50.5654 46.3085L50.1704 37.3172ZM47.4944 37.4348L56.4858 37.0398L56.3682 34.3638L47.3769 34.7588L38.3855 35.1538L38.5031 37.8298L47.4944 37.4348ZM47.3769 34.7588L46.9819 25.7675L44.3059 25.885L44.7009 34.8763L45.0959 43.8677L47.7719 43.7501L47.3769 34.7588ZM44.7009 34.8763L53.6922 34.4813L53.5747 31.8054L44.5833 32.2004L35.592 32.5954L35.7096 35.2713L44.7009 34.8763ZM44.5833 32.2004L44.1883 23.209L41.5123 23.3266L41.9073 32.3179L42.3023 41.3092L44.9783 41.1917L44.5833 32.2004ZM41.9073 32.3179L50.8987 31.9229L50.7811 29.2469L41.7898 29.6419L32.7984 30.0369L32.916 32.7129L41.9073 32.3179ZM41.7898 29.6419L41.3948 20.6506L38.7188 20.7682L39.1138 29.7595L39.5088 38.7508L42.1848 38.6333L41.7898 29.6419ZM39.1138 29.7595L48.1051 29.3645L47.2822 10.6326L38.2909 11.0276L29.2995 11.4226L30.1225 30.1545L39.1138 29.7595ZM38.2909 11.0276L38.6859 20.0189L44.0379 19.7838L43.6428 10.7924L43.2478 1.80111L37.8959 2.03623L38.2909 11.0276ZM43.6428 10.7924L34.6515 11.1874L35.3569 27.2434L44.3482 26.8484L53.3395 26.4534L52.6342 10.3974L43.6428 10.7924ZM44.3482 26.8484L44.7432 35.8397L47.4192 35.7221L47.0242 26.7308L46.6292 17.7395L43.9532 17.857L44.3482 26.8484ZM47.0242 26.7308L38.0329 27.1258L38.1504 29.8018L47.1418 29.4068L56.1331 29.0118L56.0155 26.3358L47.0242 26.7308ZM47.1418 29.4068L47.5368 38.3981L50.2128 38.2806L49.8177 29.2892L49.4227 20.2979L46.7468 20.4155L47.1418 29.4068ZM49.8177 29.2892L58.8091 28.8942L58.6915 26.2183L49.7002 26.6133L40.7089 27.0083L40.8264 29.6842L49.8177 29.2892ZM59.7058 10.0868L59.3108 1.09544L50.3194 1.49044L50.7144 10.4818L59.7058 10.0868ZM65.0577 9.85165L74.0491 9.45665L73.6541 0.46532L64.6627 0.860321L65.0577 9.85165ZM65.2929 15.2036L65.6879 24.195L74.6792 23.8L74.2842 14.8086L65.2929 15.2036ZM59.9409 15.4387L50.9496 15.8337L51.3446 24.8251L60.3359 24.4301L59.9409 15.4387ZM60.0584 18.1147L59.6634 9.12341L50.6721 9.51841L51.0671 18.5097L60.0584 18.1147ZM65.4104 17.8796L74.4017 17.4846L74.0067 8.49329L65.0154 8.88829L65.4104 17.8796ZM66.2333 36.6116L66.6283 45.6029L75.6197 45.2079L75.2247 36.2166L66.2333 36.6116ZM60.8814 36.8467L51.89 37.2417L52.285 46.233L61.2764 45.838L60.8814 36.8467ZM59.7058 10.0868L60.1008 19.0781L65.4527 18.843L65.0577 9.85165L64.6627 0.860321L59.3108 1.09544L59.7058 10.0868ZM65.0577 9.85165L56.0664 10.2467L56.3015 15.5986L65.2929 15.2036L74.2842 14.8086L74.0491 9.45665L65.0577 9.85165ZM65.2929 15.2036L64.8979 6.2123L59.5459 6.44742L59.9409 15.4387L60.3359 24.4301L65.6879 24.195L65.2929 15.2036ZM59.9409 15.4387L68.9322 15.0437L68.6971 9.69177L59.7058 10.0868L50.7144 10.4818L50.9496 15.8337L59.9409 15.4387ZM60.0584 18.1147L60.4534 27.1061L65.8054 26.8709L65.4104 17.8796L65.0154 8.88829L59.6634 9.12341L60.0584 18.1147ZM65.4104 17.8796L56.4191 18.2746L57.242 37.0066L66.2333 36.6116L75.2247 36.2166L74.4017 17.4846L65.4104 17.8796ZM66.2333 36.6116L65.8383 27.6202L60.4864 27.8553L60.8814 36.8467L61.2764 45.838L66.6283 45.6029L66.2333 36.6116ZM60.8814 36.8467L69.8727 36.4517L69.0498 17.7197L60.0584 18.1147L51.0671 18.5097L51.89 37.2417L60.8814 36.8467ZM74.0471 30.906L65.0558 31.301L65.4508 40.2923L74.4421 39.8973L74.0471 30.906ZM82.0751 30.5533L82.4701 39.5446L91.4614 39.1496L91.0664 30.1583L82.0751 30.5533ZM81.6048 19.8493L90.5962 19.4543L90.2012 10.463L81.2098 10.858L81.6048 19.8493ZM73.5769 20.202L73.1819 11.2107L64.1905 11.6057L64.5855 20.597L73.5769 20.202ZM73.4593 17.526L64.468 17.921L64.863 26.9124L73.8543 26.5173L73.4593 17.526ZM76.1353 17.4085L76.5303 26.3998L85.5216 26.0048L85.1266 17.0135L76.1353 17.4085ZM76.0177 14.7325L75.6227 5.74114L66.6314 6.13614L67.0264 15.1275L76.0177 14.7325ZM84.0457 14.3798L93.037 13.9848L92.642 4.99346L83.6507 5.38846L84.0457 14.3798ZM84.1633 17.0558L75.1719 17.4508L75.5669 26.4421L84.5583 26.0471L84.1633 17.0558ZM86.8393 16.9382L95.8306 16.5432L95.4356 7.55189L86.4442 7.94689L86.8393 16.9382ZM87.5446 32.9942L87.9396 41.9855L96.9309 41.5905L96.5359 32.5992L87.5446 32.9942ZM84.8686 33.1117L84.4736 24.1204L75.4823 24.5154L75.8773 33.5067L84.8686 33.1117ZM84.9862 35.7877L85.3812 44.779L94.3725 44.384L93.9775 35.3927L84.9862 35.7877ZM68.9302 36.4931L59.9389 36.8881L60.3339 45.8794L69.3252 45.4844L68.9302 36.4931ZM67.7546 9.73317L67.3596 0.741843L58.3683 1.13684L58.7633 10.1282L67.7546 9.73317ZM73.1066 9.49805L82.0979 9.10305L81.7029 0.111722L72.7116 0.506723L73.1066 9.49805ZM74.0471 30.906L74.4421 39.8973L82.4701 39.5446L82.0751 30.5533L81.6801 21.562L73.6521 21.9146L74.0471 30.906ZM82.0751 30.5533L91.0664 30.1583L90.5962 19.4543L81.6048 19.8493L72.6135 20.2443L73.0837 30.9483L82.0751 30.5533ZM81.6048 19.8493L81.2098 10.858L73.1819 11.2107L73.5769 20.202L73.9719 29.1933L81.9998 28.8407L81.6048 19.8493ZM73.5769 20.202L64.5855 20.597L65.0558 31.301L74.0471 30.906L83.0384 30.511L82.5682 19.807L73.5769 20.202ZM73.4593 17.526L73.8543 26.5173L76.5303 26.3998L76.1353 17.4085L75.7403 8.41713L73.0643 8.53469L73.4593 17.526ZM76.1353 17.4085L85.1266 17.0135L85.0091 14.3375L76.0177 14.7325L67.0264 15.1275L67.144 17.8035L76.1353 17.4085ZM76.0177 14.7325L76.4127 23.7238L84.4407 23.3711L84.0457 14.3798L83.6507 5.38846L75.6227 5.74114L76.0177 14.7325ZM84.0457 14.3798L75.0544 14.7748L75.1719 17.4508L84.1633 17.0558L93.1546 16.6608L93.037 13.9848L84.0457 14.3798ZM84.1633 17.0558L84.5583 26.0471L87.2343 25.9295L86.8393 16.9382L86.4442 7.94689L83.7683 8.06445L84.1633 17.0558ZM86.8393 16.9382L77.8479 17.3332L78.5533 33.3892L87.5446 32.9942L96.5359 32.5992L95.8306 16.5432L86.8393 16.9382ZM87.5446 32.9942L87.1496 24.0028L84.4736 24.1204L84.8686 33.1117L85.2636 42.1031L87.9396 41.9855L87.5446 32.9942ZM84.8686 33.1117L75.8773 33.5067L75.9948 36.1827L84.9862 35.7877L93.9775 35.3927L93.8599 32.7167L84.8686 33.1117ZM84.9862 35.7877L84.5912 26.7964L68.5352 27.5017L68.9302 36.4931L69.3252 45.4844L85.3812 44.779L84.9862 35.7877ZM68.9302 36.4931L77.9216 36.0981L76.746 9.33817L67.7546 9.73317L58.7633 10.1282L59.9389 36.8881L68.9302 36.4931ZM67.7546 9.73317L68.1496 18.7245L73.5016 18.4894L73.1066 9.49805L72.7116 0.506723L67.3596 0.741843L67.7546 9.73317ZM73.1066 9.49805L64.1153 9.89305L64.468 17.921L73.4593 17.526L82.4506 17.131L82.0979 9.10305L73.1066 9.49805ZM89.5222 16.8204L89.1272 7.82903L80.1359 8.22403L80.5309 17.2154L89.5222 16.8204ZM92.1982 16.7028L92.5932 25.6941L101.585 25.2991L101.19 16.3078L92.1982 16.7028ZM92.0806 14.0268L91.6856 5.03548L82.6943 5.43048L83.0893 14.4218L92.0806 14.0268ZM105.461 13.439L114.452 13.044L114.057 4.05268L105.066 4.44768L105.461 13.439ZM105.578 16.115L96.5868 16.51L96.9818 25.5013L105.973 25.1063L105.578 16.115ZM108.254 15.9974L117.245 15.6024L116.85 6.61111L107.859 7.00611L108.254 15.9974ZM108.724 26.7014L109.119 35.6927L118.111 35.2977L117.716 26.3064L108.724 26.7014ZM95.3444 27.2892L94.9494 18.2979L85.9581 18.6929L86.3531 27.6842L95.3444 27.2892ZM95.462 29.9652L86.4707 30.3602L86.8657 39.3515L95.857 38.9565L95.462 29.9652ZM108.842 29.3774L117.833 28.9824L117.438 19.9911L108.447 20.3861L108.842 29.3774ZM108.96 32.0534L109.355 41.0447L118.346 40.6497L117.951 31.6584L108.96 32.0534ZM106.284 32.1709L105.889 23.1796L96.8972 23.5746L97.2922 32.5659L106.284 32.1709ZM106.401 34.8469L106.796 43.8383L115.787 43.4433L115.392 34.4519L106.401 34.8469ZM93.0211 35.4347L84.0298 35.8297L84.4248 44.8211L93.4161 44.4261L93.0211 35.4347ZM92.9036 32.7587L101.895 32.3637L101.5 23.3724L92.5086 23.7674L92.9036 32.7587ZM90.2276 32.8763L81.2362 33.2713L81.6312 42.2626L90.6226 41.8676L90.2276 32.8763ZM95.1093 21.9372L86.118 22.3322L86.513 31.3235L95.5043 30.9285L95.1093 21.9372ZM103.137 21.5845L103.532 30.5759L112.524 30.1809L112.129 21.1895L103.137 21.5845ZM103.02 18.9085L112.011 18.5135L111.616 9.52222L102.625 9.91722L103.02 18.9085ZM94.9917 19.2612L94.5967 10.2699L85.6054 10.6649L86.0004 19.6562L94.9917 19.2612ZM89.5222 16.8204L89.9172 25.8117L92.5932 25.6941L92.1982 16.7028L91.8032 7.71147L89.1272 7.82903L89.5222 16.8204ZM92.1982 16.7028L101.19 16.3078L101.072 13.6318L92.0806 14.0268L83.0893 14.4218L83.2069 17.0978L92.1982 16.7028ZM92.0806 14.0268L92.4756 23.0181L105.856 22.4303L105.461 13.439L105.066 4.44768L91.6856 5.03548L92.0806 14.0268ZM105.461 13.439L96.4693 13.834L96.5868 16.51L105.578 16.115L114.569 15.72L114.452 13.044L105.461 13.439ZM105.578 16.115L105.973 25.1063L108.649 24.9888L108.254 15.9974L107.859 7.00611L105.183 7.12367L105.578 16.115ZM108.254 15.9974L99.2628 16.3924L99.7331 27.0964L108.724 26.7014L117.716 26.3064L117.245 15.6024L108.254 15.9974ZM108.724 26.7014L108.329 17.7101L94.9494 18.2979L95.3444 27.2892L95.7394 36.2805L109.119 35.6927L108.724 26.7014ZM95.3444 27.2892L86.3531 27.6842L86.4707 30.3602L95.462 29.9652L104.453 29.5702L104.336 26.8942L95.3444 27.2892ZM95.462 29.9652L95.857 38.9565L109.237 38.3687L108.842 29.3774L108.447 20.3861L95.067 20.9739L95.462 29.9652ZM108.842 29.3774L99.8506 29.7724L99.9682 32.4484L108.96 32.0534L117.951 31.6584L117.833 28.9824L108.842 29.3774ZM108.96 32.0534L108.565 23.0621L105.889 23.1796L106.284 32.1709L106.679 41.1623L109.355 41.0447L108.96 32.0534ZM106.284 32.1709L97.2922 32.5659L97.4097 35.2419L106.401 34.8469L115.392 34.4519L115.275 31.7759L106.284 32.1709ZM106.401 34.8469L106.006 25.8556L92.6261 26.4434L93.0211 35.4347L93.4161 44.4261L106.796 43.8383L106.401 34.8469ZM93.0211 35.4347L102.012 35.0397L101.895 32.3637L92.9036 32.7587L83.9122 33.1537L84.0298 35.8297L93.0211 35.4347ZM92.9036 32.7587L92.5086 23.7674L89.8326 23.885L90.2276 32.8763L90.6226 41.8676L93.2986 41.7501L92.9036 32.7587ZM90.2276 32.8763L99.2189 32.4813L98.5135 16.4254L89.5222 16.8204L80.5309 17.2154L81.2362 33.2713L90.2276 32.8763ZM95.1093 21.9372L95.5043 30.9285L103.532 30.5759L103.137 21.5845L102.742 12.5932L94.7143 12.9459L95.1093 21.9372ZM103.137 21.5845L112.129 21.1895L112.011 18.5135L103.02 18.9085L94.0284 19.3035L94.146 21.9795L103.137 21.5845ZM103.02 18.9085L102.625 9.91722L94.5967 10.2699L94.9917 19.2612L95.3867 28.2526L103.415 27.8999L103.02 18.9085ZM94.9917 19.2612L86.0004 19.6562L86.118 22.3322L95.1093 21.9372L104.101 21.5422L103.983 18.8662L94.9917 19.2612ZM10.9277 59.0247L10.5327 50.0334L1.54136 50.4284L1.93636 59.4197L10.9277 59.0247ZM16.2797 58.7896L25.271 58.3946L24.876 49.4033L15.8847 49.7983L16.2797 58.7896ZM16.3972 61.4656L7.4059 61.8606L7.80091 70.8519L16.7922 70.4569L16.3972 61.4656ZM24.4252 61.1129L24.8202 70.1043L33.8115 69.7093L33.4165 60.7179L24.4252 61.1129ZM24.1901 55.761L33.1814 55.366L32.7864 46.3746L23.7951 46.7696L24.1901 55.761ZM13.4861 56.2312L4.49479 56.6262L4.88979 65.6175L13.8811 65.2225L13.4861 56.2312ZM13.3686 53.5552L22.3599 53.1602L21.9649 44.1689L12.9736 44.5639L13.3686 53.5552ZM10.6926 53.6728L1.70124 54.0678L2.09624 63.0591L11.0876 62.6641L10.6926 53.6728ZM10.2223 42.9688L9.82733 33.9775L0.836003 34.3725L1.231 43.3638L10.2223 42.9688ZM12.8983 42.8512L13.2933 51.8426L22.2847 51.4476L21.8897 42.4562L12.8983 42.8512ZM12.7808 40.1753L12.3858 31.1839L3.39443 31.5789L3.78943 40.5703L12.7808 40.1753ZM26.1607 39.5875L35.152 39.1925L34.757 30.2011L25.7657 30.5961L26.1607 39.5875ZM26.2783 42.2634L17.2869 42.6584L17.6819 51.6498L26.6733 51.2548L26.2783 42.2634ZM28.9543 42.1459L37.9456 41.7509L37.5506 32.7596L28.5593 33.1546L28.9543 42.1459ZM29.1894 47.4979L29.5844 56.4892L38.5757 56.0942L38.1807 47.1029L29.1894 47.4979ZM23.8374 47.733L14.8461 48.128L15.2411 57.1193L24.2324 56.7243L23.8374 47.733ZM23.7198 45.057L32.7112 44.662L32.3162 35.6707L23.3248 36.0657L23.7198 45.057ZM15.6919 45.4097L15.2969 36.4183L6.30554 36.8133L6.70054 45.8047L15.6919 45.4097ZM15.927 50.7617L6.93566 51.1567L7.33067 60.148L16.322 59.753L15.927 50.7617ZM26.631 50.2914L35.6223 49.8964L35.2273 40.9051L26.236 41.3001L26.631 50.2914ZM26.7485 52.9674L17.7572 53.3624L18.1522 62.3537L27.1435 61.9587L26.7485 52.9674ZM29.4245 52.8498L38.4158 52.4548L38.0208 43.4635L29.0295 43.8585L29.4245 52.8498ZM29.8947 63.5538L30.2897 72.5451L39.2811 72.1501L38.8861 63.1588L29.8947 63.5538ZM27.2188 63.6714L26.8238 54.68L17.8324 55.075L18.2274 64.0664L27.2188 63.6714ZM27.3363 66.3474L27.7313 75.3387L36.7226 74.9437L36.3276 65.9524L27.3363 66.3474ZM13.9564 66.9352L4.96503 67.3302L5.36003 76.3215L14.3514 75.9265L13.9564 66.9352ZM13.8388 64.2592L22.8301 63.8642L22.4351 54.8728L13.4438 55.2678L13.8388 64.2592ZM11.1628 64.3767L2.17148 64.7717L2.56648 73.7631L11.5578 73.3681L11.1628 64.3767ZM10.9277 59.0247L11.3227 68.0161L16.6747 67.781L16.2797 58.7896L15.8847 49.7983L10.5327 50.0334L10.9277 59.0247ZM16.2797 58.7896L7.28834 59.1846L7.4059 61.8606L16.3972 61.4656L25.3886 61.0706L25.271 58.3946L16.2797 58.7896ZM16.3972 61.4656L16.7922 70.4569L24.8202 70.1043L24.4252 61.1129L24.0302 52.1216L16.0022 52.4743L16.3972 61.4656ZM24.4252 61.1129L33.4165 60.7179L33.1814 55.366L24.1901 55.761L15.1988 56.156L15.4339 61.5079L24.4252 61.1129ZM24.1901 55.761L23.7951 46.7696L13.0911 47.2399L13.4861 56.2312L13.8811 65.2225L24.5851 64.7523L24.1901 55.761ZM13.4861 56.2312L22.4774 55.8362L22.3599 53.1602L13.3686 53.5552L4.37723 53.9502L4.49479 56.6262L13.4861 56.2312ZM13.3686 53.5552L12.9736 44.5639L10.2976 44.6814L10.6926 53.6728L11.0876 62.6641L13.7636 62.5465L13.3686 53.5552ZM10.6926 53.6728L19.6839 53.2778L19.2137 42.5738L10.2223 42.9688L1.231 43.3638L1.70124 54.0678L10.6926 53.6728ZM10.2223 42.9688L10.6173 51.9601L13.2933 51.8426L12.8983 42.8512L12.5033 33.8599L9.82733 33.9775L10.2223 42.9688ZM12.8983 42.8512L21.8897 42.4562L21.7721 39.7803L12.7808 40.1753L3.78943 40.5703L3.90699 43.2462L12.8983 42.8512ZM12.7808 40.1753L13.1758 49.1666L26.5557 48.5788L26.1607 39.5875L25.7657 30.5961L12.3858 31.1839L12.7808 40.1753ZM26.1607 39.5875L17.1694 39.9825L17.2869 42.6584L26.2783 42.2634L35.2696 41.8684L35.152 39.1925L26.1607 39.5875ZM26.2783 42.2634L26.6733 51.2548L29.3493 51.1372L28.9543 42.1459L28.5593 33.1546L25.8833 33.2721L26.2783 42.2634ZM28.9543 42.1459L19.9629 42.5409L20.1981 47.8929L29.1894 47.4979L38.1807 47.1029L37.9456 41.7509L28.9543 42.1459ZM29.1894 47.4979L28.7944 38.5065L23.4424 38.7417L23.8374 47.733L24.2324 56.7243L29.5844 56.4892L29.1894 47.4979ZM23.8374 47.733L32.8287 47.338L32.7112 44.662L23.7198 45.057L14.7285 45.452L14.8461 48.128L23.8374 47.733ZM23.7198 45.057L23.3248 36.0657L15.2969 36.4183L15.6919 45.4097L16.0869 54.401L24.1148 54.0483L23.7198 45.057ZM15.6919 45.4097L6.70054 45.8047L6.93566 51.1567L15.927 50.7617L24.9183 50.3667L24.6832 45.0147L15.6919 45.4097ZM15.927 50.7617L16.322 59.753L27.026 59.2827L26.631 50.2914L26.236 41.3001L15.532 41.7703L15.927 50.7617ZM26.631 50.2914L17.6396 50.6864L17.7572 53.3624L26.7485 52.9674L35.7398 52.5724L35.6223 49.8964L26.631 50.2914ZM26.7485 52.9674L27.1435 61.9587L29.8195 61.8412L29.4245 52.8498L29.0295 43.8585L26.3535 43.9761L26.7485 52.9674ZM29.4245 52.8498L20.4332 53.2448L20.9034 63.9488L29.8947 63.5538L38.8861 63.1588L38.4158 52.4548L29.4245 52.8498ZM29.8947 63.5538L29.4997 54.5625L26.8238 54.68L27.2188 63.6714L27.6138 72.6627L30.2897 72.5451L29.8947 63.5538ZM27.2188 63.6714L18.2274 64.0664L18.345 66.7424L27.3363 66.3474L36.3276 65.9524L36.2101 63.2764L27.2188 63.6714ZM27.3363 66.3474L26.9413 57.356L13.5614 57.9438L13.9564 66.9352L14.3514 75.9265L27.7313 75.3387L27.3363 66.3474ZM13.9564 66.9352L22.9477 66.5402L22.8301 63.8642L13.8388 64.2592L4.84747 64.6542L4.96503 67.3302L13.9564 66.9352ZM13.8388 64.2592L13.4438 55.2678L10.7678 55.3854L11.1628 64.3767L11.5578 73.3681L14.2338 73.2505L13.8388 64.2592ZM11.1628 64.3767L20.1541 63.9817L19.919 58.6297L10.9277 59.0247L1.93636 59.4197L2.17148 64.7717L11.1628 64.3767ZM43.3992 65.6417L43.7942 74.633L52.7856 74.238L52.3906 65.2467L43.3992 65.6417ZM35.3713 65.9944L26.3799 66.3894L26.7749 75.3807L35.7663 74.9857L35.3713 65.9944ZM35.2537 63.3184L44.245 62.9234L43.85 53.9321L34.8587 54.3271L35.2537 63.3184ZM32.5777 63.4359L23.5864 63.8309L23.9814 72.8223L32.9727 72.4273L32.5777 63.4359ZM31.7548 44.704L31.3598 35.7127L22.3685 36.1077L22.7635 45.099L31.7548 44.704ZM37.1068 44.4689L46.0981 44.0739L45.7031 35.0826L36.7118 35.4776L37.1068 44.4689ZM37.8121 60.5248L28.8208 60.9198L29.2158 69.9112L38.2071 69.5162L37.8121 60.5248ZM45.8401 60.1722L46.2351 69.1635L55.2264 68.7685L54.8314 59.7772L45.8401 60.1722ZM45.1347 44.1162L44.7397 35.1249L35.7484 35.5199L36.1434 44.5112L45.1347 44.1162ZM50.4867 43.8811L59.478 43.4861L59.083 34.4948L50.0917 34.8898L50.4867 43.8811ZM51.4272 65.289L51.8222 74.2803L60.8135 73.8853L60.4185 64.894L51.4272 65.289ZM46.0752 65.5241L37.0839 65.9191L37.4789 74.9105L46.4702 74.5155L46.0752 65.5241ZM45.9577 62.8481L54.949 62.4531L54.554 53.4618L45.5627 53.8568L45.9577 62.8481ZM43.2817 62.9657L42.8867 53.9744L33.8953 54.3694L34.2903 63.3607L43.2817 62.9657ZM43.3992 65.6417L43.0042 56.6504L34.9763 57.003L35.3713 65.9944L35.7663 74.9857L43.7942 74.633L43.3992 65.6417ZM35.3713 65.9944L44.3626 65.5994L44.245 62.9234L35.2537 63.3184L26.2624 63.7134L26.3799 66.3894L35.3713 65.9944ZM35.2537 63.3184L34.8587 54.3271L32.1827 54.4446L32.5777 63.4359L32.9727 72.4273L35.6487 72.3097L35.2537 63.3184ZM32.5777 63.4359L41.569 63.0409L40.7461 44.309L31.7548 44.704L22.7635 45.099L23.5864 63.8309L32.5777 63.4359ZM31.7548 44.704L32.1498 53.6953L37.5018 53.4602L37.1068 44.4689L36.7118 35.4776L31.3598 35.7127L31.7548 44.704ZM37.1068 44.4689L28.1154 44.8639L28.8208 60.9198L37.8121 60.5248L46.8035 60.1298L46.0981 44.0739L37.1068 44.4689ZM37.8121 60.5248L38.2071 69.5162L46.2351 69.1635L45.8401 60.1722L45.4451 51.1808L37.4171 51.5335L37.8121 60.5248ZM45.8401 60.1722L54.8314 59.7772L54.1261 43.7212L45.1347 44.1162L36.1434 44.5112L36.8488 60.5672L45.8401 60.1722ZM45.1347 44.1162L45.5297 53.1075L50.8817 52.8724L50.4867 43.8811L50.0917 34.8898L44.7397 35.1249L45.1347 44.1162ZM50.4867 43.8811L41.4954 44.2761L42.4359 65.684L51.4272 65.289L60.4185 64.894L59.478 43.4861L50.4867 43.8811ZM51.4272 65.289L51.0322 56.2977L45.6802 56.5328L46.0752 65.5241L46.4702 74.5155L51.8222 74.2803L51.4272 65.289ZM46.0752 65.5241L55.0665 65.1291L54.949 62.4531L45.9577 62.8481L36.9663 63.2431L37.0839 65.9191L46.0752 65.5241ZM45.9577 62.8481L45.5627 53.8568L42.8867 53.9744L43.2817 62.9657L43.6767 71.957L46.3527 71.8395L45.9577 62.8481ZM43.2817 62.9657L34.2903 63.3607L34.4079 66.0367L43.3992 65.6417L52.3906 65.2467L52.273 62.5707L43.2817 62.9657ZM58.6392 46.2041L49.6479 46.5991L50.0429 55.5904L59.0342 55.1954L58.6392 46.2041ZM61.3152 46.0865L61.7102 55.0779L70.7015 54.6829L70.3065 45.6915L61.3152 46.0865ZM61.1976 43.4105L60.8026 34.4192L51.8113 34.8142L52.2063 43.8055L61.1976 43.4105ZM66.5496 43.1754L75.541 42.7804L75.146 33.7891L66.1546 34.1841L66.5496 43.1754ZM66.6672 45.8514L57.6759 46.2464L58.0709 55.2377L67.0622 54.8427L66.6672 45.8514ZM72.0192 45.6163L72.4142 54.6076L81.4055 54.2126L81.0105 45.2213L72.0192 45.6163ZM71.9016 42.9403L71.5066 33.949L62.5153 34.344L62.9103 43.3353L71.9016 42.9403ZM77.2536 42.7052L86.2449 42.3102L85.8499 33.3189L76.8586 33.7139L77.2536 42.7052ZM77.3711 45.3812L68.3798 45.7762L68.7748 54.7675L77.7661 54.3725L77.3711 45.3812ZM80.0471 45.2636L89.0385 44.8686L88.6435 35.8773L79.6521 36.2723L80.0471 45.2636ZM80.8701 63.9955L81.2651 72.9869L90.2564 72.5919L89.8614 63.6005L80.8701 63.9955ZM75.5181 64.2307L66.5268 64.6257L66.9218 73.617L75.9131 73.222L75.5181 64.2307ZM74.8127 48.1747L83.804 47.7797L83.409 38.7884L74.4177 39.1834L74.8127 48.1747ZM69.4607 48.4098L69.0657 39.4185L60.0744 39.8135L60.4694 48.8048L69.4607 48.4098ZM70.1661 64.4658L70.5611 73.4571L79.5524 73.0621L79.1574 64.0708L70.1661 64.4658ZM64.8141 64.7009L55.8228 65.0959L56.2178 74.0872L65.2091 73.6922L64.8141 64.7009ZM64.1088 48.645L73.1001 48.25L72.7051 39.2586L63.7138 39.6536L64.1088 48.645ZM58.7568 48.8801L58.3618 39.8888L49.3704 40.2838L49.7654 49.2751L58.7568 48.8801ZM59.4621 64.936L59.8571 73.9274L68.8485 73.5324L68.4535 64.541L59.4621 64.936ZM54.1102 65.1711L45.1188 65.5661L45.5138 74.5575L54.5052 74.1625L54.1102 65.1711ZM53.1697 43.7632L52.7747 34.7719L43.7833 35.1669L44.1783 44.1582L53.1697 43.7632ZM58.5217 43.5281L67.513 43.1331L67.118 34.1418L58.1267 34.5368L58.5217 43.5281ZM58.6392 46.2041L59.0342 55.1954L61.7102 55.0779L61.3152 46.0865L60.9202 37.0952L58.2442 37.2128L58.6392 46.2041ZM61.3152 46.0865L70.3065 45.6915L70.189 43.0155L61.1976 43.4105L52.2063 43.8055L52.3239 46.4815L61.3152 46.0865ZM61.1976 43.4105L61.5926 52.4019L66.9446 52.1668L66.5496 43.1754L66.1546 34.1841L60.8026 34.4192L61.1976 43.4105ZM66.5496 43.1754L57.5583 43.5704L57.6759 46.2464L66.6672 45.8514L75.6585 45.4564L75.541 42.7804L66.5496 43.1754ZM66.6672 45.8514L67.0622 54.8427L72.4142 54.6076L72.0192 45.6163L71.6242 36.625L66.2722 36.8601L66.6672 45.8514ZM72.0192 45.6163L81.0105 45.2213L80.8929 42.5453L71.9016 42.9403L62.9103 43.3353L63.0278 46.0113L72.0192 45.6163ZM71.9016 42.9403L72.2966 51.9316L77.6486 51.6965L77.2536 42.7052L76.8586 33.7139L71.5066 33.949L71.9016 42.9403ZM77.2536 42.7052L68.2623 43.1002L68.3798 45.7762L77.3711 45.3812L86.3625 44.9862L86.2449 42.3102L77.2536 42.7052ZM77.3711 45.3812L77.7661 54.3725L80.4421 54.2549L80.0471 45.2636L79.6521 36.2723L76.9761 36.3898L77.3711 45.3812ZM80.0471 45.2636L71.0558 45.6586L71.8787 64.3905L80.8701 63.9955L89.8614 63.6005L89.0385 44.8686L80.0471 45.2636ZM80.8701 63.9955L80.4751 55.0042L75.1231 55.2393L75.5181 64.2307L75.9131 73.222L81.2651 72.9869L80.8701 63.9955ZM75.5181 64.2307L84.5094 63.8357L83.804 47.7797L74.8127 48.1747L65.8214 48.5697L66.5268 64.6257L75.5181 64.2307ZM74.8127 48.1747L74.4177 39.1834L69.0657 39.4185L69.4607 48.4098L69.8557 57.4012L75.2077 57.1661L74.8127 48.1747ZM69.4607 48.4098L60.4694 48.8048L61.1748 64.8608L70.1661 64.4658L79.1574 64.0708L78.4521 48.0148L69.4607 48.4098ZM70.1661 64.4658L69.7711 55.4745L64.4191 55.7096L64.8141 64.7009L65.2091 73.6922L70.5611 73.4571L70.1661 64.4658ZM64.8141 64.7009L73.8054 64.3059L73.1001 48.25L64.1088 48.645L55.1174 49.04L55.8228 65.0959L64.8141 64.7009ZM64.1088 48.645L63.7138 39.6536L58.3618 39.8888L58.7568 48.8801L59.1518 57.8714L64.5038 57.6363L64.1088 48.645ZM58.7568 48.8801L49.7654 49.2751L50.4708 65.331L59.4621 64.936L68.4535 64.541L67.7481 48.4851L58.7568 48.8801ZM59.4621 64.936L59.0671 55.9447L53.7152 56.1798L54.1102 65.1711L54.5052 74.1625L59.8571 73.9274L59.4621 64.936ZM54.1102 65.1711L63.1015 64.7761L62.161 43.3682L53.1697 43.7632L44.1783 44.1582L45.1188 65.5661L54.1102 65.1711ZM53.1697 43.7632L53.5647 52.7546L58.9167 52.5194L58.5217 43.5281L58.1267 34.5368L52.7747 34.7719L53.1697 43.7632ZM58.5217 43.5281L49.5303 43.9231L49.6479 46.5991L58.6392 46.2041L67.6305 45.8091L67.513 43.1331L58.5217 43.5281ZM88.0542 44.9119L79.0629 45.3069L79.4579 54.2982L88.4492 53.9032L88.0542 44.9119ZM90.7302 44.7943L91.1252 53.7856L100.117 53.3906L99.7215 44.3993L90.7302 44.7943ZM90.6126 42.1183L90.2176 33.127L81.2263 33.522L81.6213 42.5133L90.6126 42.1183ZM95.9646 41.8832L104.956 41.4882L104.561 32.4969L95.5696 32.8919L95.9646 41.8832ZM96.0822 44.5592L87.0909 44.9542L87.4859 53.9455L96.4772 53.5505L96.0822 44.5592ZM101.434 44.3241L101.829 53.3154L110.82 52.9204L110.425 43.9291L101.434 44.3241ZM101.317 41.6481L100.922 32.6567L91.9303 33.0517L92.3253 42.0431L101.317 41.6481ZM106.669 41.4129L115.66 41.0179L115.265 32.0266L106.274 32.4216L106.669 41.4129ZM106.786 44.0889L97.7948 44.4839L98.1898 53.4753L107.181 53.0803L106.786 44.0889ZM109.462 43.9714L118.453 43.5764L118.058 34.585L109.067 34.98L109.462 43.9714ZM110.285 62.7033L110.68 71.6946L119.671 71.2996L119.276 62.3083L110.285 62.7033ZM104.933 62.9384L95.9417 63.3334L96.3367 72.3248L105.328 71.9298L104.933 62.9384ZM104.228 46.8825L113.219 46.4875L112.824 37.4962L103.833 37.8912L104.228 46.8825ZM98.8757 47.1176L98.4807 38.1263L89.4894 38.5213L89.8844 47.5126L98.8757 47.1176ZM99.5811 63.1735L99.9761 72.1649L108.967 71.7699L108.572 62.7785L99.5811 63.1735ZM94.2291 63.4087L85.2378 63.8037L85.6328 72.795L94.6241 72.4L94.2291 63.4087ZM93.5237 47.3527L102.515 46.9577L102.12 37.9664L93.1287 38.3614L93.5237 47.3527ZM88.1718 47.5878L87.7768 38.5965L78.7854 38.9915L79.1804 47.9828L88.1718 47.5878ZM88.8771 63.6438L89.2721 72.6351L98.2635 72.2401L97.8684 63.2488L88.8771 63.6438ZM83.5251 63.8789L74.5338 64.2739L74.9288 73.2652L83.9201 72.8702L83.5251 63.8789ZM82.5847 42.471L82.1897 33.4797L73.1983 33.8747L73.5933 42.866L82.5847 42.471ZM87.9366 42.2359L96.928 41.8409L96.533 32.8495L87.5416 33.2445L87.9366 42.2359ZM88.0542 44.9119L88.4492 53.9032L91.1252 53.7856L90.7302 44.7943L90.3352 35.803L87.6592 35.9205L88.0542 44.9119ZM90.7302 44.7943L99.7215 44.3993L99.604 41.7233L90.6126 42.1183L81.6213 42.5133L81.7389 45.1893L90.7302 44.7943ZM90.6126 42.1183L91.0076 51.1096L96.3596 50.8745L95.9646 41.8832L95.5696 32.8919L90.2176 33.127L90.6126 42.1183ZM95.9646 41.8832L86.9733 42.2782L87.0909 44.9542L96.0822 44.5592L105.074 44.1642L104.956 41.4882L95.9646 41.8832ZM96.0822 44.5592L96.4772 53.5505L101.829 53.3154L101.434 44.3241L101.039 35.3327L95.6872 35.5678L96.0822 44.5592ZM101.434 44.3241L110.425 43.9291L110.308 41.2531L101.317 41.6481L92.3253 42.0431L92.4428 44.7191L101.434 44.3241ZM101.317 41.6481L101.712 50.6394L107.064 50.4043L106.669 41.4129L106.274 32.4216L100.922 32.6567L101.317 41.6481ZM106.669 41.4129L97.6772 41.8079L97.7948 44.4839L106.786 44.0889L115.777 43.6939L115.66 41.0179L106.669 41.4129ZM106.786 44.0889L107.181 53.0803L109.857 52.9627L109.462 43.9714L109.067 34.98L106.391 35.0976L106.786 44.0889ZM109.462 43.9714L100.471 44.3664L101.294 63.0983L110.285 62.7033L119.276 62.3083L118.453 43.5764L109.462 43.9714ZM110.285 62.7033L109.89 53.712L104.538 53.9471L104.933 62.9384L105.328 71.9298L110.68 71.6946L110.285 62.7033ZM104.933 62.9384L113.924 62.5434L113.219 46.4875L104.228 46.8825L95.2364 47.2775L95.9417 63.3334L104.933 62.9384ZM104.228 46.8825L103.833 37.8912L98.4807 38.1263L98.8757 47.1176L99.2707 56.1089L104.623 55.8738L104.228 46.8825ZM98.8757 47.1176L89.8844 47.5126L90.5898 63.5685L99.5811 63.1735L108.572 62.7785L107.867 46.7226L98.8757 47.1176ZM99.5811 63.1735L99.1861 54.1822L93.8341 54.4173L94.2291 63.4087L94.6241 72.4L99.9761 72.1649L99.5811 63.1735ZM94.2291 63.4087L103.22 63.0137L102.515 46.9577L93.5237 47.3527L84.5324 47.7477L85.2378 63.8037L94.2291 63.4087ZM93.5237 47.3527L93.1287 38.3614L87.7768 38.5965L88.1718 47.5878L88.5668 56.5792L93.9187 56.3441L93.5237 47.3527ZM88.1718 47.5878L79.1804 47.9828L79.8858 64.0388L88.8771 63.6438L97.8684 63.2488L97.1631 47.1928L88.1718 47.5878ZM88.8771 63.6438L88.4821 54.6525L83.1301 54.8876L83.5251 63.8789L83.9201 72.8702L89.2721 72.6351L88.8771 63.6438ZM83.5251 63.8789L92.5165 63.4839L91.576 42.076L82.5847 42.471L73.5933 42.866L74.5338 64.2739L83.5251 63.8789ZM82.5847 42.471L82.9797 51.4623L88.3316 51.2272L87.9366 42.2359L87.5416 33.2445L82.1897 33.4797L82.5847 42.471ZM87.9366 42.2359L78.9453 42.6309L79.0629 45.3069L88.0542 44.9119L97.0455 44.5169L96.928 41.8409L87.9366 42.2359ZM112.117 43.8547L111.722 34.8634L102.731 35.2584L103.126 44.2497L112.117 43.8547ZM114.793 43.7372L115.188 52.7285L124.18 52.3335L123.785 43.3422L114.793 43.7372ZM114.676 41.0612L114.281 32.0699L105.289 32.4649L105.684 41.4562L114.676 41.0612ZM128.056 40.4734L137.047 40.0784L136.652 31.0871L127.661 31.4821L128.056 40.4734ZM128.173 43.1494L119.182 43.5444L119.577 52.5357L128.568 52.1407L128.173 43.1494ZM130.849 43.0318L139.84 42.6368L139.445 33.6455L130.454 34.0405L130.849 43.0318ZM131.319 53.7358L131.714 62.7271L140.706 62.3321L140.311 53.3408L131.319 53.7358ZM117.939 54.3236L117.544 45.3322L108.553 45.7273L108.948 54.7186L117.939 54.3236ZM118.057 56.9996L109.066 57.3946L109.461 66.3859L118.452 65.9909L118.057 56.9996ZM131.437 56.4118L140.428 56.0168L140.033 47.0254L131.042 47.4204L131.437 56.4118ZM131.555 59.0878L131.95 68.0791L140.941 67.6841L140.546 58.6928L131.555 59.0878ZM128.879 59.2053L128.484 50.214L119.492 50.609L119.887 59.6003L128.879 59.2053ZM128.996 61.8813L129.391 70.8726L138.382 70.4776L137.987 61.4863L128.996 61.8813ZM115.616 62.4691L106.625 62.8641L107.02 71.8554L116.011 71.4604L115.616 62.4691ZM115.499 59.7931L124.49 59.3981L124.095 50.4068L115.104 50.8018L115.499 59.7931ZM112.823 59.9107L103.831 60.3057L104.226 69.297L113.218 68.902L112.823 59.9107ZM117.704 48.9716L108.713 49.3666L109.108 58.3579L118.099 57.9629L117.704 48.9716ZM125.732 48.6189L126.127 57.6102L135.119 57.2152L134.724 48.2239L125.732 48.6189ZM125.615 45.9429L134.606 45.5479L134.211 36.5566L125.22 36.9516L125.615 45.9429ZM117.587 46.2956L117.192 37.3043L108.2 37.6993L108.595 46.6906L117.587 46.2956ZM112.117 43.8547L112.512 52.8461L115.188 52.7285L114.793 43.7372L114.398 34.7458L111.722 34.8634L112.117 43.8547ZM114.793 43.7372L123.785 43.3422L123.667 40.6662L114.676 41.0612L105.684 41.4562L105.802 44.1322L114.793 43.7372ZM114.676 41.0612L115.071 50.0525L128.451 49.4647L128.056 40.4734L127.661 31.4821L114.281 32.0699L114.676 41.0612ZM128.056 40.4734L119.064 40.8684L119.182 43.5444L128.173 43.1494L137.164 42.7544L137.047 40.0784L128.056 40.4734ZM128.173 43.1494L128.568 52.1407L131.244 52.0231L130.849 43.0318L130.454 34.0405L127.778 34.158L128.173 43.1494ZM130.849 43.0318L121.858 43.4268L122.328 54.1308L131.319 53.7358L140.311 53.3408L139.84 42.6368L130.849 43.0318ZM131.319 53.7358L130.924 44.7444L117.544 45.3322L117.939 54.3236L118.334 63.3149L131.714 62.7271L131.319 53.7358ZM117.939 54.3236L108.948 54.7186L109.066 57.3946L118.057 56.9996L127.048 56.6046L126.931 53.9286L117.939 54.3236ZM118.057 56.9996L118.452 65.9909L131.832 65.4031L131.437 56.4118L131.042 47.4204L117.662 48.0082L118.057 56.9996ZM131.437 56.4118L122.446 56.8068L122.563 59.4828L131.555 59.0878L140.546 58.6928L140.428 56.0168L131.437 56.4118ZM131.555 59.0878L131.16 50.0964L128.484 50.214L128.879 59.2053L129.274 68.1966L131.95 68.0791L131.555 59.0878ZM128.879 59.2053L119.887 59.6003L120.005 62.2763L128.996 61.8813L137.987 61.4863L137.87 58.8103L128.879 59.2053ZM128.996 61.8813L128.601 52.89L115.221 53.4778L115.616 62.4691L116.011 71.4604L129.391 70.8726L128.996 61.8813ZM115.616 62.4691L124.607 62.0741L124.49 59.3981L115.499 59.7931L106.507 60.1881L106.625 62.8641L115.616 62.4691ZM115.499 59.7931L115.104 50.8018L112.428 50.9193L112.823 59.9107L113.218 68.902L115.894 68.7844L115.499 59.7931ZM112.823 59.9107L121.814 59.5157L121.109 43.4597L112.117 43.8547L103.126 44.2497L103.831 60.3057L112.823 59.9107ZM117.704 48.9716L118.099 57.9629L126.127 57.6102L125.732 48.6189L125.337 39.6276L117.309 39.9803L117.704 48.9716ZM125.732 48.6189L134.724 48.2239L134.606 45.5479L125.615 45.9429L116.623 46.3379L116.741 49.0139L125.732 48.6189ZM125.615 45.9429L125.22 36.9516L117.192 37.3043L117.587 46.2956L117.982 55.2869L126.01 54.9343L125.615 45.9429ZM117.587 46.2956L108.595 46.6906L108.713 49.3666L117.704 48.9716L126.696 48.5766L126.578 45.9006L117.587 46.2956ZM144.354 45.1197L153.345 44.7247L152.95 35.7334L143.959 36.1284L144.354 45.1197ZM141.678 45.2373L141.283 36.2459L132.291 36.6409L132.686 45.6323L141.678 45.2373ZM141.795 47.9132L142.19 56.9046L151.182 56.5096L150.787 47.5182L141.795 47.9132ZM139.119 48.0308L138.724 39.0395L129.733 39.4345L130.128 48.4258L139.119 48.0308ZM139.707 61.4108L140.102 70.4021L149.093 70.0071L148.698 61.0158L139.707 61.4108ZM134.355 61.6459L125.364 62.0409L125.759 71.0322L134.75 70.6372L134.355 61.6459ZM133.415 40.238L133.02 31.2466L124.028 31.6416L124.423 40.633L133.415 40.238ZM138.767 40.0028L147.758 39.6078L147.363 30.6165L138.372 31.0115L138.767 40.0028ZM138.884 42.6788L129.893 43.0738L130.288 52.0652L139.279 51.6702L138.884 42.6788ZM141.56 42.5613L141.955 51.5526L150.946 51.1576L150.551 42.1663L141.56 42.5613ZM141.443 39.8853L141.048 30.8939L132.056 31.289L132.451 40.2803L141.443 39.8853ZM146.794 39.6502L155.786 39.2552L155.391 30.2638L146.399 30.6588L146.794 39.6502ZM146.912 42.3261L137.921 42.7212L138.316 51.7125L147.307 51.3175L146.912 42.3261ZM149.588 42.2086L158.579 41.8136L158.184 32.8223L149.193 33.2173L149.588 42.2086ZM149.706 44.8846L150.101 53.8759L159.092 53.4809L158.697 44.4896L149.706 44.8846ZM147.03 45.0021L146.635 36.0108L137.643 36.4058L138.038 45.3971L147.03 45.0021ZM147.147 47.6781L147.542 56.6695L156.534 56.2745L156.139 47.2831L147.147 47.6781ZM144.471 47.7957L135.48 48.1907L135.875 57.182L144.866 56.787L144.471 47.7957ZM144.354 45.1197L143.959 36.1284L141.283 36.2459L141.678 45.2373L142.073 54.2286L144.749 54.111L144.354 45.1197ZM141.678 45.2373L132.686 45.6323L132.804 48.3083L141.795 47.9132L150.787 47.5182L150.669 44.8423L141.678 45.2373ZM141.795 47.9132L141.4 38.9219L138.724 39.0395L139.119 48.0308L139.514 57.0221L142.19 56.9046L141.795 47.9132ZM139.119 48.0308L130.128 48.4258L130.716 61.8058L139.707 61.4108L148.698 61.0158L148.111 47.6358L139.119 48.0308ZM139.707 61.4108L139.312 52.4194L133.96 52.6546L134.355 61.6459L134.75 70.6372L140.102 70.4021L139.707 61.4108ZM134.355 61.6459L143.346 61.2509L142.406 39.843L133.415 40.238L124.423 40.633L125.364 62.0409L134.355 61.6459ZM133.415 40.238L133.81 49.2293L139.162 48.9942L138.767 40.0028L138.372 31.0115L133.02 31.2466L133.415 40.238ZM138.767 40.0028L129.775 40.3978L129.893 43.0738L138.884 42.6788L147.875 42.2838L147.758 39.6078L138.767 40.0028ZM138.884 42.6788L139.279 51.6702L141.955 51.5526L141.56 42.5613L141.165 33.5699L138.489 33.6875L138.884 42.6788ZM141.56 42.5613L150.551 42.1663L150.434 39.4903L141.443 39.8853L132.451 40.2803L132.569 42.9563L141.56 42.5613ZM141.443 39.8853L141.838 48.8766L147.189 48.6415L146.794 39.6502L146.399 30.6588L141.048 30.8939L141.443 39.8853ZM146.794 39.6502L137.803 40.0452L137.921 42.7212L146.912 42.3261L155.903 41.9311L155.786 39.2552L146.794 39.6502ZM146.912 42.3261L147.307 51.3175L149.983 51.1999L149.588 42.2086L149.193 33.2173L146.517 33.3348L146.912 42.3261ZM149.588 42.2086L140.597 42.6036L140.714 45.2796L149.706 44.8846L158.697 44.4896L158.579 41.8136L149.588 42.2086ZM149.706 44.8846L149.311 35.8933L146.635 36.0108L147.03 45.0021L147.425 53.9935L150.101 53.8759L149.706 44.8846ZM147.03 45.0021L138.038 45.3971L138.156 48.0731L147.147 47.6781L156.139 47.2831L156.021 44.6071L147.03 45.0021ZM147.147 47.6781L146.752 38.6868L144.076 38.8044L144.471 47.7957L144.866 56.787L147.542 56.6695L147.147 47.6781ZM144.471 47.7957L153.463 47.4007L153.345 44.7247L144.354 45.1197L135.362 45.5147L135.48 48.1907L144.471 47.7957Z" fill="url(#paint0_radial_4290_1327)" mask="url(#path-1-outside-1_4290_1327)"/>
<defs>
<radialGradient id="paint0_radial_4290_1327" cx="0" cy="0" r="1" gradientUnits="userSpaceOnUse" gradientTransform="translate(75.6571 37.1985) rotate(44.0395) scale(74.1647 95.8762)">
<stop offset="0.560573" stop-color="#C581FF"/>
<stop offset="0.780287" stop-color="#C839A7"/>
<stop offset="1" stop-color="#FF959D"/>
</radialGradient>
</defs>
</svg>
