<svg width="62" height="80" viewBox="0 0 62 80" fill="none" xmlns="http://www.w3.org/2000/svg">
<g clip-path="url(#clip0_4290_1180)">
<path d="M58.4615 9.23077V6.15385H52.3077V3.07692H49.2308V0H40V3.07692H36.9231V30.7692H33.8462V33.8462H3.07692V36.9231H0V46.1538H3.07692V49.2308V52.3077H6.15385V55.3846H9.23077V58.4615H12.3077V61.5385H18.4615V64.6154H21.5385V67.6923H33.8462V64.6154H40V61.5385H46.1538V58.4615H49.2308V55.3846H52.3077V49.2308H55.3846V36.9231H52.3077V30.7692H49.2308V15.3846H61.5385V9.23077H58.4615Z" fill="#BA7BF0"/>
</g>
<rect x="49.2324" y="3.07617" width="3.07692" height="3.07692" fill="black"/>
<rect x="52.3057" y="6.15234" width="3.07692" height="3.07692" fill="#2F2F2F"/>
<rect x="43.0752" y="6.15234" width="3.07692" height="3.07692" fill="black"/>
<rect x="43.0752" y="12.3076" width="3.07692" height="3.07692" fill="#676767"/>
<rect x="46.1543" y="6.15234" width="3.07692" height="3.07692" fill="black"/>
<rect x="49.2305" y="6.15234" width="3.07692" height="3.07692" fill="black"/>
<rect x="46.1543" y="9.23047" width="3.07692" height="3.07692" fill="black"/>
<rect x="46.1543" y="3.07617" width="3.07692" height="3.07692" fill="black"/>
<rect x="43.5273" y="3.07617" width="3.07692" height="3.07692" fill="black"/>
<rect x="40" y="6.15234" width="3.07692" height="3.07692" fill="black"/>
<rect x="36.9229" y="6.15234" width="3.07692" height="3.07692" fill="black"/>
<rect x="55.3867" y="6.15234" width="3.07692" height="3.07692" fill="#2F2F2F"/>
<rect x="58.46" y="9.23242" width="3.07692" height="3.07692" fill="#2F2F2F"/>
<rect x="58.4619" y="12.3076" width="3.07692" height="3.07692" fill="#2F2F2F"/>
<rect x="55.3867" y="12.3076" width="3.07692" height="3.07692" fill="#2F2F2F"/>
<rect x="52.3057" y="12.3076" width="3.07692" height="3.07692" fill="#2F2F2F"/>
<rect x="49.2324" y="12.3076" width="3.07692" height="3.07692" fill="#2F2F2F"/>
<rect x="46.1543" y="15.3848" width="3.07692" height="3.07692" fill="#2F2F2F"/>
<rect x="36.9209" y="15.3848" width="3.07692" height="3.07692" fill="#2F2F2F"/>
<rect x="46.1543" y="12.3076" width="3.07692" height="3.07692" fill="#2F2F2F"/>
<rect x="43.0752" y="15.3848" width="3.07692" height="3.07692" fill="#CFF66B"/>
<rect x="43.0752" y="18.4609" width="3.07692" height="3.07692" fill="#00E1FF"/>
<rect x="43.0752" y="21.5371" width="3.07692" height="3.07692" fill="white"/>
<rect x="43.0752" y="24.6172" width="3.07692" height="3.07692" fill="#CFF66B"/>
<rect x="49.2324" y="33.8457" width="3.07692" height="3.07692" fill="#00E1FF"/>
<rect x="36.9209" y="30.7695" width="3.07692" height="3.07692" fill="#00E1FF"/>
<rect x="49.2324" y="49.2305" width="3.07692" height="3.07692" fill="#CFF66B"/>
<rect x="46.1543" y="52.3066" width="3.07692" height="3.07692" fill="white"/>
<rect x="43.0752" y="55.3857" width="3.07692" height="3.07692" fill="#CFF66B"/>
<rect x="40.002" y="55.3857" width="3.07692" height="3.07692" fill="#00E1FF"/>
<rect x="40.002" y="58.4629" width="3.07692" height="3.07692" fill="#CFF66B"/>
<rect x="36.9209" y="58.4629" width="3.07692" height="3.07692" fill="#BA7BF0"/>
<rect x="33.8477" y="58.4629" width="3.07692" height="3.07692" fill="#BA7BF0"/>
<rect x="30.7695" y="58.4629" width="3.07692" height="3.07692" fill="#BA7BF0"/>
<rect x="27.6904" y="61.5381" width="3.07692" height="3.07692" fill="#CFF66B"/>
<rect x="18.4639" y="58.4629" width="3.07692" height="3.07692" fill="#CFF66B"/>
<rect x="12.3057" y="55.3857" width="3.07692" height="3.07692" fill="#CFF66B"/>
<rect x="21.5361" y="55.3857" width="3.07692" height="3.07692" fill="#CFF66B"/>
<rect x="30.7695" y="49.2305" width="3.07692" height="3.07692" fill="#CFF66B"/>
<rect x="33.8477" y="40.001" width="3.07692" height="3.07692" fill="#CFF66B"/>
<rect x="36.9209" y="49.2305" width="3.07692" height="3.07692" fill="#2F2F2F"/>
<rect x="24.6172" y="55.3857" width="3.07692" height="3.07692" fill="white"/>
<rect x="27.6904" y="55.3857" width="3.07692" height="3.07692" fill="white"/>
<rect x="30.7695" y="55.3857" width="3.07692" height="3.07692" fill="#CFF66B"/>
<rect x="15.3848" y="52.3066" width="3.07692" height="3.07692" fill="#00E1FF"/>
<rect x="12.3057" y="49.2305" width="3.07692" height="3.07692" fill="#CFF66B"/>
<rect x="6.15137" y="43.0781" width="3.07692" height="3.07692" fill="#CFF66B"/>
<rect x="3.0791" y="40.001" width="3.07692" height="3.07692" fill="#CFF66B"/>
<rect y="40.001" width="3.07692" height="3.07692" fill="#00E1FF"/>
<rect x="21.5361" y="64.6152" width="3.07692" height="3.07692" fill="#CFF66B"/>
<rect x="49.2324" y="9.23242" width="3.07692" height="3.07692" fill="#FF20F8"/>
<rect x="52.3057" y="9.23242" width="3.07692" height="3.07692" fill="#FF20F8"/>
<rect x="55.3867" y="9.23242" width="3.07692" height="3.07692" fill="#FF20F8"/>
<rect x="46.1543" y="18.4609" width="3.07692" height="3.07692" fill="#2F2F2F"/>
<rect x="36.9209" y="18.4609" width="3.07692" height="3.07692" fill="#2F2F2F"/>
<rect x="46.1543" y="21.5371" width="3.07692" height="3.07692" fill="#2F2F2F"/>
<rect x="36.9209" y="21.5371" width="3.07692" height="3.07692" fill="#2F2F2F"/>
<rect x="46.1543" y="24.6172" width="3.07692" height="3.07692" fill="#2F2F2F"/>
<rect x="36.9209" y="24.6172" width="3.07692" height="3.07692" fill="#2F2F2F"/>
<rect x="46.1543" y="27.6924" width="3.07692" height="3.07692" fill="#2F2F2F"/>
<rect x="36.9209" y="27.6924" width="3.07692" height="3.07692" fill="#2F2F2F"/>
<rect x="49.2324" y="30.7695" width="3.07692" height="3.07692" fill="#2F2F2F"/>
<rect x="52.3057" y="36.9219" width="3.07692" height="3.07692" fill="#2F2F2F"/>
<rect x="52.3057" y="40.001" width="3.07692" height="3.07692" fill="#2F2F2F"/>
<rect x="52.3057" y="43.0781" width="3.07692" height="3.07692" fill="#2F2F2F"/>
<rect x="52.3057" y="46.1543" width="3.07692" height="3.07692" fill="#2F2F2F"/>
<rect x="49.2324" y="52.3066" width="3.07692" height="3.07692" fill="#2F2F2F"/>
<rect x="46.1543" y="55.3857" width="3.07692" height="3.07692" fill="#2F2F2F"/>
<rect x="43.0752" y="58.4629" width="3.07692" height="3.07692" fill="#2F2F2F"/>
<rect x="36.9209" y="61.5381" width="3.07692" height="3.07692" fill="#2F2F2F"/>
<rect x="33.8477" y="61.5381" width="3.07692" height="3.07692" fill="#2F2F2F"/>
<rect x="33.8477" y="52.3066" width="3.07692" height="3.07692" fill="#00E1FF"/>
<rect x="36.9209" y="46.1543" width="3.07692" height="3.07692" fill="#CFF66B"/>
<rect x="33.8477" y="43.0781" width="3.07692" height="3.07692" fill="#2F2F2F"/>
<rect x="36.9209" y="40.001" width="3.07692" height="3.07692" fill="white"/>
<rect x="30.7695" y="46.1543" width="3.07692" height="3.07692" fill="#2F2F2F"/>
<rect x="27.6904" y="49.2305" width="3.07692" height="3.07692" fill="#2F2F2F"/>
<rect x="24.6172" y="49.2305" width="3.07692" height="3.07692" fill="#2F2F2F"/>
<rect x="21.5361" y="46.1543" width="3.07692" height="3.07692" fill="#CFF66B"/>
<rect x="24.6152" y="43.0771" width="3.07692" height="3.07692" fill="#00E1FF"/>
<rect x="18.4639" y="46.1543" width="3.07692" height="3.07692" fill="white"/>
<rect x="15.3848" y="46.1543" width="3.07692" height="3.07692" fill="#2F2F2F"/>
<rect x="12.3057" y="46.1543" width="3.07692" height="3.07692" fill="#2F2F2F"/>
<rect x="9.23242" y="46.1543" width="3.07692" height="3.07692" fill="#2F2F2F"/>
<rect x="9.23242" y="43.0781" width="3.07692" height="3.07692" fill="white"/>
<rect x="6.15137" y="40.001" width="3.07692" height="3.07692" fill="#2F2F2F"/>
<rect x="3.0791" y="36.9219" width="3.07692" height="3.07692" fill="#2F2F2F"/>
<rect x="3.0791" y="33.8457" width="3.07692" height="3.07692" fill="#2F2F2F"/>
<rect x="6.15137" y="33.8457" width="3.07692" height="3.07692" fill="#2F2F2F"/>
<rect x="9.23242" y="33.8457" width="3.07692" height="3.07692" fill="#2F2F2F"/>
<rect x="12.3057" y="33.8457" width="3.07692" height="3.07692" fill="#00E1FF"/>
<rect x="15.3848" y="33.8457" width="3.07692" height="3.07692" fill="#2F2F2F"/>
<rect x="18.4639" y="33.8457" width="3.07692" height="3.07692" fill="#2F2F2F"/>
<rect x="21.5391" y="33.8457" width="3.07692" height="3.07692" fill="#CFF66B"/>
<rect x="24.6152" y="33.8457" width="3.07692" height="3.07692" fill="#CFF66B"/>
<rect x="27.6924" y="33.8457" width="3.07692" height="3.07692" fill="white"/>
<rect x="30.7695" y="33.8457" width="3.07692" height="3.07692" fill="#2F2F2F"/>
<rect x="33.8477" y="30.7695" width="3.07692" height="3.07692" fill="#2F2F2F"/>
<rect y="36.9219" width="3.07692" height="3.07692" fill="#2F2F2F"/>
<rect x="15.3848" y="49.2305" width="3.07692" height="3.07692" fill="#2F2F2F"/>
<rect x="30.7695" y="61.5381" width="3.07692" height="3.07692" fill="#2F2F2F"/>
<rect x="30.7695" y="64.6152" width="3.07692" height="3.07692" fill="#00E1FF"/>
<rect x="30.7695" y="67.6914" width="3.07692" height="3.07692" fill="#FF20F8"/>
<rect x="30.7695" y="70.7705" width="3.07692" height="3.07692" fill="#FF20F8"/>
<rect x="30.7695" y="73.8477" width="3.07692" height="3.07692" fill="#FF20F8"/>
<rect x="33.8477" y="73.8477" width="3.07692" height="3.07692" fill="#FF20F8"/>
<rect x="33.8477" y="76.9229" width="3.07692" height="3.07692" fill="#FF20F8"/>
<rect x="36.9209" y="76.9229" width="3.07692" height="3.07692" fill="#FF20F8"/>
<rect x="36.9209" y="73.8477" width="3.07692" height="3.07692" fill="#FF20F8"/>
<rect x="40.002" y="73.8477" width="3.07692" height="3.07692" fill="#FF20F8"/>
<rect x="27.6904" y="64.6152" width="3.07692" height="3.07692" fill="#2F2F2F"/>
<rect x="24.6172" y="64.6152" width="3.07692" height="3.07692" fill="#2F2F2F"/>
<rect x="21.5361" y="61.5381" width="3.07692" height="3.07692" fill="#00E1FF"/>
<rect x="18.4639" y="61.5381" width="3.07692" height="3.07692" fill="#2F2F2F"/>
<rect x="15.3848" y="58.4629" width="3.07692" height="3.07692" fill="#2F2F2F"/>
<rect x="12.3057" y="58.4629" width="3.07692" height="3.07692" fill="#2F2F2F"/>
<rect x="9.23242" y="55.3857" width="3.07692" height="3.07692" fill="#2F2F2F"/>
<rect x="6.15137" y="52.3066" width="3.07692" height="3.07692" fill="white"/>
<rect x="18.4639" y="52.3066" width="3.07692" height="3.07692" fill="#2F2F2F"/>
<rect x="21.5361" y="52.3066" width="3.07692" height="3.07692" fill="#2F2F2F"/>
<rect x="3.0791" y="49.2305" width="3.07692" height="3.07692" fill="#2F2F2F"/>
<rect x="3.0791" y="46.1543" width="3.07692" height="3.07692" fill="#2F2F2F"/>
<rect y="43.0781" width="3.07692" height="3.07692" fill="#2F2F2F"/>
<rect x="21.5361" y="67.6914" width="3.07692" height="3.07692" fill="#FF20F8"/>
<rect x="21.5361" y="70.7705" width="3.07692" height="3.07692" fill="#FF20F8"/>
<rect x="26.1553" y="73.8477" width="3.07692" height="3.07692" fill="#FF20F8"/>
<rect x="23.0771" y="73.8477" width="3.07692" height="3.07692" fill="#FF20F8"/>
<rect x="23.0771" y="76.9229" width="3.07692" height="3.07692" fill="#FF20F8"/>
<rect x="19.998" y="76.9229" width="3.07692" height="3.07692" fill="#FF20F8"/>
<rect x="19.998" y="73.8477" width="3.07692" height="3.07692" fill="#FF20F8"/>
<rect x="16.9248" y="73.8477" width="3.07692" height="3.07692" fill="#FF20F8"/>
<defs>
<clipPath id="clip0_4290_1180">
<rect width="61.5385" height="67.6923" fill="white"/>
</clipPath>
</defs>
</svg>
