<svg width="290" height="90" viewBox="0 0 290 90" fill="none" xmlns="http://www.w3.org/2000/svg">
<g style="mix-blend-mode:luminosity">
<path d="M244.081 63.8235H239.799V68.1054H235.517V89.5149H226.953V55.2598H235.517V59.5417H239.799V55.2598H248.363V59.5417H252.645V63.8235H248.363V68.1054H244.081V63.8235Z" fill="#F0FFBD"/>
</g>
<g style="mix-blend-mode:luminosity">
<path d="M192.688 59.5417H196.969V55.2598H218.379V59.5417H222.661V76.6692H201.251V80.9511H222.661V85.233H218.379V89.5149H196.969V85.233H192.688V59.5417ZM201.251 68.1054H214.097V63.8235H201.251V68.1054Z" fill="#F0FFBD"/>
</g>
<g style="mix-blend-mode:luminosity">
<path d="M154.181 59.5417H158.463V55.2598H167.027V59.5417H175.591V55.2598H184.155V59.5417H188.437V89.5149H179.873V63.8235H171.309V89.5149H162.745V63.8235H154.181V89.5149H145.617V55.2598H154.181V59.5417Z" fill="#F0FFBD"/>
</g>
<g style="mix-blend-mode:luminosity">
<path d="M107.115 59.5417H111.397V55.2598H119.961V59.5417H128.524V55.2598H137.088V59.5417H141.37V89.5149H132.806V63.8235H124.243V89.5149H115.679V63.8235H107.115V89.5149H98.5508V55.2598H107.115V59.5417Z" fill="#F0FFBD"/>
</g>
<g style="mix-blend-mode:luminosity">
<path d="M81.411 89.5149H68.5652V85.233H64.2832V55.2598H72.8471V80.9511H85.693V55.2598H94.2569V89.5149H85.693V85.233H81.411V89.5149Z" fill="#F0FFBD"/>
</g>
<g style="mix-blend-mode:luminosity">
<path d="M30.0176 76.6685H38.5815V80.9504H51.4274V72.3866H34.2995V68.1047H30.0176V50.9772H34.2995V46.6953H55.7093V50.9772H59.9913V59.541H51.4274V55.2591H38.5815V63.8229H55.7093V68.1047H59.9913V85.2323H55.7093V89.5142H34.2995V85.2323H30.0176V76.6685Z" fill="#F0FFBD"/>
</g>
<g style="mix-blend-mode:luminosity">
<path d="M158.5 21.112H162.782V16.8301H184.192V21.112H188.474V38.2395H167.064V42.5214H188.474V46.8033H184.192V51.0852H162.782V46.8033H158.5V21.112ZM167.064 29.6757H179.91V25.3938H167.064V29.6757Z" fill="#F0FFBD"/>
</g>
<g style="mix-blend-mode:luminosity">
<path d="M132.794 42.5207H145.64V25.3932H132.794V42.5207ZM132.794 21.1113H137.076V16.8294H149.922V21.1113H154.204V46.8026H149.922V51.0845H124.23V8.26562H132.794V21.1113Z" fill="#F0FFBD"/>
</g>
<g style="mix-blend-mode:luminosity">
<path d="M111.352 8.26562H119.915V16.8294H111.352V8.26562ZM111.352 21.1113H119.915V51.0845H111.352V21.1113Z" fill="#F0FFBD"/>
</g>
<g style="mix-blend-mode:luminosity">
<path d="M94.2138 33.9569H98.4957V8.26562H107.06V38.2388H102.778V42.5207H98.4957V46.8026H94.2138V51.0845H89.9318V46.8026H85.6499V42.5207H81.3679V38.2388H77.0859V8.26562H85.6499V33.9569H89.9318V38.2388H94.2138V33.9569Z" fill="#F0FFBD"/>
</g>
<g style="mix-blend-mode:exclusion">
<path d="M250.833 55.809H246.551V60.0909H242.269V81.5005H233.705V47.2451H242.269V51.527H246.551V47.2451H255.115V51.527H259.397V55.809H255.115V60.0909H250.833V55.809Z" fill="#F06969"/>
</g>
<g style="mix-blend-mode:exclusion">
<path d="M199.439 51.527H203.721V47.2451H225.131V51.527H229.413V68.6547H208.003V72.9367H229.413V77.2186H225.131V81.5005H203.721V77.2186H199.439V51.527ZM208.003 60.0909H220.849V55.809H208.003V60.0909Z" fill="#F06969"/>
</g>
<g style="mix-blend-mode:exclusion">
<path d="M160.933 51.527H165.215V47.2451H173.779V51.527H182.343V47.2451H190.907V51.527H195.189V81.5005H186.625V55.809H178.061V81.5005H169.497V55.809H160.933V81.5005H152.369V47.2451H160.933V51.527Z" fill="#F06969"/>
</g>
<g style="mix-blend-mode:exclusion">
<path d="M113.867 51.527H118.149V47.2451H126.713V51.527H135.276V47.2451H143.84V51.527H148.122V81.5005H139.558V55.809H130.994V81.5005H122.431V55.809H113.867V81.5005H105.303V47.2451H113.867V51.527Z" fill="#F06969"/>
</g>
<g style="mix-blend-mode:exclusion">
<path d="M88.163 81.5005H75.3171V77.2186H71.0352V47.2451H79.5991V72.9367H92.4449V47.2451H101.009V81.5005H92.4449V77.2186H88.163V81.5005Z" fill="#F06969"/>
</g>
<g style="mix-blend-mode:exclusion">
<path d="M36.7695 68.6541H45.3334V72.936H58.1793V64.3722H41.0515V60.0903H36.7695V42.9626H41.0515V38.6807H62.4613V42.9626H66.7432V51.5264H58.1793V47.2445H45.3334V55.8084H62.4613V60.0903H66.7432V77.218H62.4613V81.4999H41.0515V77.218H36.7695V68.6541Z" fill="#F06969"/>
</g>
<g style="mix-blend-mode:exclusion">
<path d="M165.252 13.0983H169.534V8.81641H190.944V13.0983H195.226V30.226H173.816V34.5079H195.226V38.7899H190.944V43.0718H169.534V38.7899H165.252V13.0983ZM173.816 21.6622H186.662V17.3803H173.816V21.6622Z" fill="#F06969"/>
</g>
<g style="mix-blend-mode:exclusion">
<path d="M139.546 34.5064H152.392V17.3787H139.546V34.5064ZM139.546 13.0967H143.828V8.81482H156.674V13.0967H160.956V38.7883H156.674V43.0702H130.982V0.250977H139.546V13.0967Z" fill="#F06969"/>
</g>
<g style="mix-blend-mode:exclusion">
<path d="M118.104 0.250977H126.667V8.81482H118.104V0.250977ZM118.104 13.0967H126.667V43.0702H118.104V13.0967Z" fill="#F06969"/>
</g>
<g style="mix-blend-mode:exclusion">
<path d="M100.966 25.9425H105.248V0.250977H113.812V30.2244H109.53V34.5064H105.248V38.7883H100.966V43.0702H96.6838V38.7883H92.4018V34.5064H88.1198V30.2244H83.8379V0.250977H92.4018V25.9425H96.6838V30.2244H100.966V25.9425Z" fill="#F06969"/>
</g>
<g style="mix-blend-mode:hue">
<path d="M246.899 64.0579H242.617V68.3398H238.335V89.7492H229.771V55.4941H238.335V59.776H242.617V55.4941H251.181V59.776H255.463V64.0579H251.181V68.3398H246.899V64.0579Z" fill="#6D6BF6"/>
</g>
<g style="mix-blend-mode:hue">
<path d="M195.504 59.776H199.786V55.4941H221.196V59.776H225.478V76.9036H204.068V81.1855H225.478V85.4673H221.196V89.7492H199.786V85.4673H195.504V59.776ZM204.068 68.3398H216.914V64.0579H204.068V68.3398Z" fill="#6D6BF6"/>
</g>
<g style="mix-blend-mode:hue">
<path d="M156.998 59.776H161.279V55.4941H169.843V59.776H178.407V55.4941H186.971V59.776H191.253V89.7492H182.689V64.0579H174.125V89.7492H165.561V64.0579H156.998V89.7492H148.434V55.4941H156.998V59.776Z" fill="#6D6BF6"/>
</g>
<g style="mix-blend-mode:hue">
<path d="M109.931 59.776H114.213V55.4941H122.777V59.776H131.341V55.4941H139.905V59.776H144.187V89.7492H135.623V64.0579H127.059V89.7492H118.495V64.0579H109.931V89.7492H101.367V55.4941H109.931V59.776Z" fill="#6D6BF6"/>
</g>
<g style="mix-blend-mode:hue">
<path d="M84.2274 89.7492H71.3816V85.4673H67.0996V55.4941H75.6635V81.1855H88.5094V55.4941H97.0733V89.7492H88.5094V85.4673H84.2274V89.7492Z" fill="#6D6BF6"/>
</g>
<g style="mix-blend-mode:hue">
<path d="M32.834 76.9019H41.3979V81.1838H54.2438V72.62H37.1159V68.3381H32.834V51.2106H37.1159V46.9287H58.5257V51.2106H62.8077V59.7744H54.2438V55.4925H41.3979V64.0563H58.5257V68.3381H62.8077V85.4657H58.5257V89.7476H37.1159V85.4657H32.834V76.9019Z" fill="#6D6BF6"/>
</g>
<g style="mix-blend-mode:hue">
<path d="M161.316 21.3454H165.598V17.0635H187.008V21.3454H191.29V38.4729H169.88V42.7548H191.29V47.0367H187.008V51.3186H165.598V47.0367H161.316V21.3454ZM169.88 29.9091H182.726V25.6272H169.88V29.9091Z" fill="#6D6BF6"/>
</g>
<g style="mix-blend-mode:hue">
<path d="M135.613 42.7541H148.459V25.6266H135.613V42.7541ZM135.613 21.3447H139.895V17.0628H152.741V21.3447H157.023V47.036H152.741V51.3179H127.049V8.49902H135.613V21.3447Z" fill="#6D6BF6"/>
</g>
<g style="mix-blend-mode:hue">
<path d="M114.168 8.49902H122.732V17.0628H114.168V8.49902ZM114.168 21.3447H122.732V51.3179H114.168V21.3447Z" fill="#6D6BF6"/>
</g>
<g style="mix-blend-mode:hue">
<path d="M97.0302 34.1903H101.312V8.49902H109.876V38.4722H105.594V42.7541H101.312V47.036H97.0302V51.3179H92.7482V47.036H88.4663V42.7541H84.1843V38.4722H79.9023V8.49902H88.4663V34.1903H92.7482V38.4722H97.0302V34.1903Z" fill="#6D6BF6"/>
</g>
<g style="mix-blend-mode:hue">
<path d="M244.081 63.8235H239.799V68.1054H235.517V89.5149H226.953V55.2598H235.517V59.5417H239.799V55.2598H248.363V59.5417H252.645V63.8235H248.363V68.1054H244.081V63.8235Z" fill="#F06969"/>
</g>
<g style="mix-blend-mode:hue">
<path d="M192.688 59.5417H196.969V55.2598H218.379V59.5417H222.661V76.6692H201.251V80.9511H222.661V85.233H218.379V89.5149H196.969V85.233H192.688V59.5417ZM201.251 68.1054H214.097V63.8235H201.251V68.1054Z" fill="#F06969"/>
</g>
<g style="mix-blend-mode:hue">
<path d="M154.181 59.5417H158.463V55.2598H167.027V59.5417H175.591V55.2598H184.155V59.5417H188.437V89.5149H179.873V63.8235H171.309V89.5149H162.745V63.8235H154.181V89.5149H145.617V55.2598H154.181V59.5417Z" fill="#F06969"/>
</g>
<g style="mix-blend-mode:hue">
<path d="M107.115 59.5417H111.397V55.2598H119.961V59.5417H128.524V55.2598H137.088V59.5417H141.37V89.5149H132.806V63.8235H124.243V89.5149H115.679V63.8235H107.115V89.5149H98.5508V55.2598H107.115V59.5417Z" fill="#F06969"/>
</g>
<g style="mix-blend-mode:hue">
<path d="M81.411 89.5149H68.5652V85.233H64.2832V55.2598H72.8471V80.9511H85.693V55.2598H94.2569V89.5149H85.693V85.233H81.411V89.5149Z" fill="#F06969"/>
</g>
<g style="mix-blend-mode:hue">
<path d="M30.0176 76.6685H38.5815V80.9504H51.4274V72.3866H34.2995V68.1047H30.0176V50.9772H34.2995V46.6953H55.7093V50.9772H59.9913V59.541H51.4274V55.2591H38.5815V63.8229H55.7093V68.1047H59.9913V85.2323H55.7093V89.5142H34.2995V85.2323H30.0176V76.6685Z" fill="#F06969"/>
</g>
<g style="mix-blend-mode:hue">
<path d="M158.5 21.112H162.782V16.8301H184.192V21.112H188.474V38.2395H167.064V42.5214H188.474V46.8033H184.192V51.0852H162.782V46.8033H158.5V21.112ZM167.064 29.6757H179.91V25.3938H167.064V29.6757Z" fill="#F06969"/>
</g>
<g style="mix-blend-mode:hue">
<path d="M132.794 42.5207H145.64V25.3932H132.794V42.5207ZM132.794 21.1113H137.076V16.8294H149.922V21.1113H154.204V46.8026H149.922V51.0845H124.23V8.26562H132.794V21.1113Z" fill="#F06969"/>
</g>
<g style="mix-blend-mode:hue">
<path d="M111.352 8.26562H119.915V16.8294H111.352V8.26562ZM111.352 21.1113H119.915V51.0845H111.352V21.1113Z" fill="#F06969"/>
</g>
<g style="mix-blend-mode:hue">
<path d="M94.2138 33.9569H98.4957V8.26562H107.06V38.2388H102.778V42.5207H98.4957V46.8026H94.2138V51.0845H89.9318V46.8026H85.6499V42.5207H81.3679V38.2388H77.0859V8.26562H85.6499V33.9569H89.9318V38.2388H94.2138V33.9569Z" fill="#F06969"/>
</g>
</svg>
